<svg width="24" height="24" viewBox="0 0 24 24" fill="none" xmlns="http://www.w3.org/2000/svg">
<g clip-path="url(#clip0_1_5718)">
<path d="M13.54 18C13.0667 18.0006 12.6076 17.8381 12.24 17.54L7.14002 13.33C6.94003 13.1708 6.77851 12.9685 6.6675 12.7383C6.55649 12.508 6.49884 12.2556 6.49884 12C6.49884 11.7444 6.55649 11.492 6.6675 11.2618C6.77851 11.0315 6.94003 10.8292 7.14002 10.67L12.24 6.46001C12.5471 6.214 12.917 6.05919 13.3078 6.01323C13.6985 5.96726 14.0943 6.03198 14.45 6.20001C14.7592 6.33629 15.0226 6.55868 15.2088 6.84063C15.395 7.12257 15.4961 7.45215 15.5 7.79001V16.21C15.4961 16.5479 15.395 16.8774 15.2088 17.1594C15.0226 17.4413 14.7592 17.6637 14.45 17.8C14.1642 17.93 13.8541 17.9982 13.54 18Z" fill="#111827"/>
</g>
<defs>
<clipPath id="clip0_1_5718">
<rect width="24" height="24" fill="white"/>
</clipPath>
</defs>
</svg>
