<svg width="24" height="24" viewBox="0 0 24 24" fill="none" xmlns="http://www.w3.org/2000/svg">
<g clip-path="url(#clip0_1_6537)">
<path d="M19 15V3.99997C18.9993 3.84976 18.9648 3.70164 18.899 3.56661C18.8332 3.43157 18.7379 3.31309 18.62 3.21997C18.5038 3.12599 18.3681 3.05924 18.2227 3.02463C18.0773 2.99002 17.9261 2.98843 17.78 3.01997L8.78 5.01997C8.55782 5.07007 8.3594 5.19452 8.21757 5.37272C8.07573 5.55093 7.99898 5.77221 8 5.99997V14.34C7.31733 14.0177 6.54857 13.9254 5.80904 14.0771C5.0695 14.2287 4.39908 14.6161 3.89834 15.181C3.3976 15.746 3.09354 16.458 3.03178 17.2104C2.97002 17.9628 3.15389 18.715 3.5558 19.354C3.95771 19.993 4.556 20.4845 5.2609 20.7547C5.9658 21.0249 6.73932 21.0593 7.4654 20.8527C8.19149 20.646 8.831 20.2095 9.28799 19.6086C9.74498 19.0077 9.99481 18.2749 10 17.52C10.0103 17.3468 10.0103 17.1731 10 17V6.79997L17 5.24997V12.34C16.3169 12.0175 15.5477 11.9253 14.8078 12.0773C14.0679 12.2293 13.3973 12.6172 12.8967 13.1828C12.396 13.7484 12.0924 14.4612 12.0314 15.2141C11.9704 15.967 12.1553 16.7193 12.5584 17.3582C12.9614 17.997 13.5609 18.4878 14.2666 18.7569C14.9724 19.026 15.7465 19.0589 16.4725 18.8506C17.1986 18.6423 17.8375 18.204 18.2932 17.6016C18.7489 16.9993 18.997 16.2653 19 15.51C19.0095 15.3401 19.0095 15.1698 19 15Z" fill="#111827"/>
</g>
<defs>
<clipPath id="clip0_1_6537">
<rect width="24" height="24" fill="white"/>
</clipPath>
</defs>
</svg>
