<svg width="24" height="24" viewBox="0 0 24 24" fill="none" xmlns="http://www.w3.org/2000/svg">
<g clip-path="url(#clip0_1_7040)">
<path d="M16.91 14.08L18.35 15.52C19.1071 14.4784 19.5091 13.221 19.4964 11.9334C19.4838 10.6458 19.0574 9.39648 18.28 8.36996C18.1129 8.1631 17.8705 8.03107 17.6061 8.00294C17.3417 7.97481 17.0769 8.05288 16.87 8.21996C16.6632 8.38705 16.5311 8.62947 16.503 8.8939C16.4749 9.15832 16.5529 9.4231 16.72 9.62996C17.1893 10.2693 17.4579 11.0337 17.4917 11.8261C17.5255 12.6184 17.3231 13.4029 16.91 14.08Z" fill="#111827"/>
<path d="M21 12C20.9791 13.635 20.3436 15.2022 19.22 16.39L20.64 17.81C22.1359 16.2433 22.9796 14.1661 23 12C22.9816 10.6922 22.6702 9.40514 22.0887 8.23354C21.5072 7.06194 20.6705 6.0356 19.64 5.23003C19.5389 5.14598 19.4222 5.08268 19.2966 5.04372C19.1711 5.00477 19.039 4.99094 18.9081 5.00301C18.7772 5.01508 18.6499 5.05282 18.5336 5.11408C18.4172 5.17534 18.3141 5.25891 18.23 5.36003C18.146 5.46115 18.0827 5.57783 18.0437 5.70341C18.0048 5.829 17.9909 5.96102 18.003 6.09195C18.0151 6.22288 18.0528 6.35015 18.1141 6.4665C18.1753 6.58284 18.2589 6.68598 18.36 6.77003C19.1621 7.3899 19.8154 8.18124 20.2721 9.08614C20.7289 9.99104 20.9776 10.9866 21 12Z" fill="#111827"/>
<path d="M15 12.17V3.99996C15.0015 3.81668 14.9527 3.6365 14.8587 3.47911C14.7648 3.32173 14.6294 3.19318 14.4674 3.10752C14.3054 3.02185 14.1229 2.98237 13.94 2.99338C13.757 3.0044 13.5806 3.06548 13.43 3.16996L9 6.19996L15 12.17Z" fill="#111827"/>
<path d="M4.74 7.56995H2C1.73478 7.56995 1.48043 7.6753 1.29289 7.86284C1.10536 8.05038 1 8.30473 1 8.56995V15.4299C1 15.6952 1.10536 15.9495 1.29289 16.1371C1.48043 16.3246 1.73478 16.4299 2 16.4299H7L13.41 20.8299C13.5856 20.9436 13.7909 21.0027 14 20.9999C14.2652 20.9999 14.5196 20.8946 14.7071 20.7071C14.8946 20.5195 15 20.2652 15 19.9999V17.8299L4.74 7.56995Z" fill="#111827"/>
<path d="M4.71 3.28994C4.61676 3.1967 4.50607 3.12274 4.38425 3.07228C4.26243 3.02182 4.13186 2.99585 4 2.99585C3.86814 2.99585 3.73758 3.02182 3.61575 3.07228C3.49393 3.12274 3.38324 3.1967 3.29 3.28994C3.1017 3.47825 2.99591 3.73364 2.99591 3.99994C2.99591 4.26624 3.1017 4.52164 3.29 4.70994L19.29 20.7099C19.383 20.8037 19.4936 20.8781 19.6154 20.9288C19.7373 20.9796 19.868 21.0057 20 21.0057C20.132 21.0057 20.2627 20.9796 20.3846 20.9288C20.5064 20.8781 20.617 20.8037 20.71 20.7099C20.8037 20.617 20.8781 20.5064 20.9289 20.3845C20.9797 20.2627 21.0058 20.132 21.0058 19.9999C21.0058 19.8679 20.9797 19.7372 20.9289 19.6154C20.8781 19.4935 20.8037 19.3829 20.71 19.2899L4.71 3.28994Z" fill="#111827"/>
</g>
<defs>
<clipPath id="clip0_1_7040">
<rect width="24" height="24" fill="white"/>
</clipPath>
</defs>
</svg>
