<svg width="24" height="24" viewBox="0 0 24 24" fill="none" xmlns="http://www.w3.org/2000/svg">
<g clip-path="url(#clip0_1_4259)">
<path d="M5.22999 10.64C5.31394 10.7413 5.41704 10.825 5.53339 10.8863C5.64973 10.9477 5.77704 10.9855 5.90802 10.9975C6.039 11.0096 6.17107 10.9957 6.29667 10.9567C6.42228 10.9176 6.53894 10.8542 6.63999 10.77L11 7.14001V19C11 19.2652 11.1053 19.5196 11.2929 19.7071C11.4804 19.8947 11.7348 20 12 20C12.2652 20 12.5196 19.8947 12.7071 19.7071C12.8946 19.5196 13 19.2652 13 19V7.14001L17.36 10.77C17.4611 10.8541 17.5778 10.9174 17.7034 10.9563C17.829 10.9953 17.961 11.0091 18.0919 10.997C18.2228 10.985 18.3501 10.9472 18.4665 10.886C18.5828 10.8247 18.6859 10.7411 18.77 10.64C18.854 10.5389 18.9173 10.4222 18.9563 10.2966C18.9952 10.171 19.0091 10.039 18.997 9.90808C18.9849 9.77715 18.9472 9.64988 18.8859 9.53354C18.8247 9.41719 18.7411 9.31405 18.64 9.23001L12.64 4.23001L12.49 4.14001L12.36 4.07001C12.1283 3.98061 11.8717 3.98061 11.64 4.07001L11.51 4.14001L11.36 4.23001L5.35999 9.23001C5.25873 9.31396 5.17503 9.41706 5.11368 9.5334C5.05233 9.64975 5.01453 9.77706 5.00245 9.90804C4.99038 10.039 5.00426 10.1711 5.0433 10.2967C5.08235 10.4223 5.14579 10.539 5.22999 10.64Z" fill="#111827"/>
</g>
<defs>
<clipPath id="clip0_1_4259">
<rect width="24" height="24" fill="white"/>
</clipPath>
</defs>
</svg>
