<svg width="24" height="24" viewBox="0 0 24 24" fill="none" xmlns="http://www.w3.org/2000/svg">
<g clip-path="url(#clip0_1_4386)">
<path d="M20 6.83002C20.0049 6.45862 19.9348 6.09006 19.7939 5.7464C19.653 5.40274 19.4442 5.09106 19.18 4.83002C18.6419 4.31418 17.9254 4.02618 17.18 4.02618C16.4346 4.02618 15.7181 4.31418 15.18 4.83002L8.58 11.43H8.36C7.22745 11.4604 6.14983 11.9246 5.34963 12.7266C4.54944 13.5287 4.08779 14.6074 4.06 15.74L4 19C3.99657 19.135 4.02049 19.2692 4.07033 19.3947C4.12017 19.5201 4.19489 19.6342 4.29 19.73C4.48468 19.9055 4.73794 20.0018 5 20L8.26 19.94C9.39262 19.9122 10.4713 19.4506 11.2734 18.6504C12.0754 17.8502 12.5396 16.7726 12.57 15.64V15.41L19.18 8.81002C19.4427 8.55201 19.6507 8.2437 19.7916 7.90351C19.9325 7.56332 20.0034 7.19821 20 6.83002ZM8.25 17.94L6 18V15.77C6.0105 15.1405 6.26798 14.5402 6.71693 14.0988C7.16589 13.6573 7.77035 13.4099 8.4 13.41C8.68574 13.41 8.96863 13.4669 9.23212 13.5774C9.49561 13.688 9.73442 13.8499 9.9346 14.0538C10.1348 14.2577 10.2923 14.4995 10.398 14.765C10.5036 15.0304 10.5553 15.3143 10.55 15.6C10.5353 16.2092 10.2894 16.7899 9.86233 17.2244C9.43521 17.659 8.8588 17.9148 8.25 17.94ZM17.77 7.39002L11.9 13.26C11.7464 13.0314 11.5724 12.8172 11.38 12.62C11.1854 12.4248 10.9709 12.2505 10.74 12.1L16.61 6.24002C16.7663 6.09086 16.974 6.00763 17.19 6.00763C17.406 6.00763 17.6137 6.09086 17.77 6.24002C17.846 6.31787 17.9055 6.41024 17.945 6.51161C17.9846 6.61298 18.0033 6.72127 18 6.83002C18.0004 6.9339 17.9802 7.03683 17.9408 7.13292C17.9013 7.22901 17.8433 7.31638 17.77 7.39002Z" fill="#111827"/>
</g>
<defs>
<clipPath id="clip0_1_4386">
<rect width="24" height="24" fill="white"/>
</clipPath>
</defs>
</svg>
