<svg width="24" height="24" viewBox="0 0 24 24" fill="none" xmlns="http://www.w3.org/2000/svg">
<g clip-path="url(#clip0_1_4524)">
<path d="M4.29001 12L8.77001 6.64003C8.85405 6.53891 8.91736 6.42223 8.95631 6.29665C8.99526 6.17106 9.0091 6.03904 8.99703 5.90811C8.98495 5.77717 8.94721 5.6499 8.88595 5.53356C8.8247 5.41721 8.74112 5.31407 8.64001 5.23003C8.53889 5.14598 8.42221 5.08268 8.29662 5.04372C8.17104 5.00477 8.03901 4.99094 7.90808 5.00301C7.77715 5.01508 7.64988 5.05282 7.53354 5.11408C7.41719 5.17534 7.31405 5.25891 7.23001 5.36003L2.23001 11.36C2.08292 11.539 2.00252 11.7634 2.00252 11.995C2.00252 12.2267 2.08292 12.4511 2.23001 12.63L7.06001 18.63C7.15412 18.746 7.27304 18.8395 7.40802 18.9035C7.543 18.9676 7.69061 19.0005 7.84001 19C8.02924 19.0007 8.21477 18.9476 8.37505 18.847C8.53533 18.7464 8.66377 18.6024 8.74546 18.4317C8.82714 18.261 8.85871 18.0706 8.83651 17.8827C8.8143 17.6948 8.73923 17.517 8.62001 17.37L4.29001 12Z" fill="#111827"/>
<path d="M21.78 11.37L17 5.37003C16.8329 5.16316 16.5905 5.03114 16.3261 5.003C16.0616 4.97487 15.7969 5.05294 15.59 5.22003C15.3831 5.38711 15.2511 5.62953 15.223 5.89396C15.1949 6.15839 15.2729 6.42316 15.44 6.63003L19.71 12L15.23 17.37C15.1458 17.4711 15.0824 17.5877 15.0433 17.7133C15.0043 17.8389 14.9904 17.971 15.0025 18.102C15.0145 18.233 15.0523 18.3603 15.1137 18.4766C15.175 18.593 15.2587 18.6961 15.36 18.78C15.5413 18.9255 15.7676 19.0033 16 19C16.1469 19.0003 16.2921 18.9681 16.4252 18.9059C16.5582 18.8437 16.676 18.7529 16.77 18.64L21.77 12.64C21.9185 12.4623 22.0007 12.2384 22.0025 12.0068C22.0043 11.7752 21.9257 11.5501 21.78 11.37Z" fill="#111827"/>
<path d="M15.72 11.41C15.5326 11.2237 15.2792 11.1192 15.015 11.1192C14.7508 11.1192 14.4974 11.2237 14.31 11.41L13 12.64V8C13 7.73478 12.8946 7.48043 12.7071 7.29289C12.5196 7.10536 12.2652 7 12 7C11.7348 7 11.4804 7.10536 11.2929 7.29289C11.1054 7.48043 11 7.73478 11 8V12.59L9.71 11.29C9.5217 11.1017 9.2663 10.9959 9 10.9959C8.7337 10.9959 8.47831 11.1017 8.29 11.29C8.1017 11.4783 7.99591 11.7337 7.99591 12C7.99591 12.2663 8.1017 12.5217 8.29 12.71L11.29 15.71C11.3834 15.8027 11.4943 15.876 11.6161 15.9258C11.7379 15.9755 11.8684 16.0008 12 16C12.2575 15.999 12.5046 15.8987 12.69 15.72L15.69 12.82C15.8803 12.6366 15.9903 12.3854 15.9959 12.1212C16.0015 11.857 15.9023 11.6013 15.72 11.41Z" fill="#111827"/>
</g>
<defs>
<clipPath id="clip0_1_4524">
<rect width="24" height="24" fill="white"/>
</clipPath>
</defs>
</svg>
