<svg width="24" height="24" viewBox="0 0 24 24" fill="none" xmlns="http://www.w3.org/2000/svg">
<g clip-path="url(#clip0_1_5626)">
<path d="M22.4881 12.2059C22.4881 11.3045 22.415 10.6468 22.2567 9.96472H11.9639V14.0329H18.0055C17.8838 15.0439 17.226 16.5664 15.7643 17.5895L15.7438 17.7257L18.9982 20.2467L19.2236 20.2692C21.2944 18.3569 22.4881 15.5432 22.4881 12.2059Z" fill="white"/>
<path d="M11.9639 22.9244C14.9238 22.9244 17.4086 21.9499 19.2237 20.2691L15.7643 17.5894C14.8385 18.2349 13.5961 18.6856 11.9639 18.6856C9.06485 18.6856 6.60434 16.7734 5.72723 14.1302L5.59867 14.1412L2.21469 16.7599L2.17044 16.8829C3.97319 20.4639 7.67618 22.9244 11.9639 22.9244Z" fill="#3C8505"/>
<path d="M5.72724 14.1303C5.49581 13.4482 5.36187 12.7174 5.36187 11.9622C5.36187 11.207 5.49581 10.4762 5.71506 9.79413L5.70893 9.64886L2.28255 6.98804L2.17045 7.04136C1.42745 8.52737 1.00111 10.1961 1.00111 11.9622C1.00111 13.7284 1.42745 15.397 2.17045 16.883L5.72724 14.1303Z" fill="#FFB800"/>
<path d="M11.9639 5.23869C14.0224 5.23869 15.411 6.12785 16.2028 6.87089L19.2967 3.85018C17.3966 2.08405 14.9238 1 11.9639 1C7.67618 1 3.97319 3.46039 2.17044 7.04135L5.71505 9.79412C6.60434 7.15102 9.06485 5.23869 11.9639 5.23869Z" fill="#D91B1B"/>
</g>
<defs>
<clipPath id="clip0_1_5626">
<rect width="21.4995" height="22" fill="white" transform="translate(1 1)"/>
</clipPath>
</defs>
</svg>
