<svg width="24" height="24" viewBox="0 0 24 24" fill="none" xmlns="http://www.w3.org/2000/svg">
<g clip-path="url(#clip0_1_5017)">
<path d="M10 6.00005C10 5.46962 10.2107 4.96091 10.5858 4.58584C10.9609 4.21077 11.4696 4.00005 12 4.00005C12.5304 4.00005 13.0391 4.21077 13.4142 4.58584C13.7893 4.96091 14 5.46962 14 6.00005V11.0001C14.0043 11.0533 14.0043 11.1068 14 11.1601L15.6 12.7501C15.8642 12.2046 16.001 11.6062 16 11.0001V6.00005C15.9889 5.01225 15.6128 4.06348 14.9439 3.3365C14.275 2.60951 13.3608 2.15575 12.3774 2.06262C11.3939 1.96949 10.4107 2.24358 9.61731 2.83208C8.82388 3.42059 8.27628 4.28188 8.08 5.25005L10 7.17005V6.00005Z" fill="#111827"/>
<path d="M19 11C19 10.7348 18.8946 10.4804 18.7071 10.2929C18.5196 10.1054 18.2652 10 18 10C17.7348 10 17.4804 10.1054 17.2929 10.2929C17.1054 10.4804 17 10.7348 17 11C16.9971 11.8737 16.7587 12.7304 16.31 13.48L17.78 15C18.5847 13.8221 19.0104 12.4265 19 11Z" fill="#111827"/>
<path d="M12 15H12.16L8 10.83V11C8 12.0608 8.42143 13.0782 9.17157 13.8284C9.92172 14.5785 10.9391 15 12 15Z" fill="#111827"/>
<path d="M20.71 19.2899L4.71 3.28994C4.61676 3.1967 4.50607 3.12274 4.38425 3.07228C4.26243 3.02182 4.13186 2.99585 4 2.99585C3.86814 2.99585 3.73757 3.02182 3.61575 3.07228C3.49393 3.12274 3.38324 3.1967 3.29 3.28994C3.1017 3.47825 2.99591 3.73364 2.99591 3.99994C2.99591 4.26624 3.1017 4.52164 3.29 4.70994L19.29 20.7099C19.383 20.8037 19.4936 20.8781 19.6154 20.9288C19.7373 20.9796 19.868 21.0057 20 21.0057C20.132 21.0057 20.2627 20.9796 20.3846 20.9288C20.5064 20.8781 20.617 20.8037 20.71 20.7099C20.8037 20.617 20.8781 20.5064 20.9289 20.3845C20.9797 20.2627 21.0058 20.132 21.0058 19.9999C21.0058 19.8679 20.9797 19.7372 20.9289 19.6154C20.8781 19.4935 20.8037 19.3829 20.71 19.2899Z" fill="#111827"/>
<path d="M15 20H13V17.92C13.5659 17.8412 14.12 17.6935 14.65 17.48L13.05 15.88C12.7058 15.9605 12.3535 16.0007 12 16C10.6739 16 9.40215 15.4732 8.46447 14.5355C7.52678 13.5979 7 12.3261 7 11C7 10.7348 6.89464 10.4804 6.70711 10.2929C6.51957 10.1054 6.26522 10 6 10C5.73478 10 5.48043 10.1054 5.29289 10.2929C5.10536 10.4804 5 10.7348 5 11C5.00197 12.6818 5.60941 14.3068 6.71118 15.5775C7.81295 16.8482 9.3354 17.6797 11 17.92V20H9C8.73478 20 8.48043 20.1054 8.29289 20.2929C8.10536 20.4804 8 20.7348 8 21C8 21.2652 8.10536 21.5196 8.29289 21.7071C8.48043 21.8946 8.73478 22 9 22H15C15.2652 22 15.5196 21.8946 15.7071 21.7071C15.8946 21.5196 16 21.2652 16 21C16 20.7348 15.8946 20.4804 15.7071 20.2929C15.5196 20.1054 15.2652 20 15 20Z" fill="#111827"/>
</g>
<defs>
<clipPath id="clip0_1_5017">
<rect width="24" height="24" fill="white"/>
</clipPath>
</defs>
</svg>
