<svg width="24" height="24" viewBox="0 0 24 24" fill="none" xmlns="http://www.w3.org/2000/svg">
<g clip-path="url(#clip0_1_5089)">
<path d="M13.67 22.0001H13.61C13.3899 21.9868 13.1804 21.9012 13.014 21.7565C12.8476 21.6118 12.7337 21.4162 12.69 21.2001L11 13.0001L2.8 11.3101C2.58347 11.2671 2.38726 11.1536 2.24195 10.9874C2.09665 10.8212 2.01043 10.6116 1.99673 10.3913C1.98303 10.1709 2.04262 9.95227 2.16622 9.76935C2.28982 9.58643 2.47047 9.44956 2.68 9.38006L18.68 4.05006C18.8596 3.9759 19.0569 3.95567 19.2478 3.99185C19.4387 4.02802 19.615 4.11903 19.755 4.25374C19.895 4.38846 19.9927 4.56105 20.0363 4.75042C20.0798 4.93979 20.0672 5.13773 20 5.32006L14.67 21.3201C14.6004 21.527 14.465 21.7056 14.2844 21.8283C14.1039 21.9511 13.8881 22.0114 13.67 22.0001ZM6.87 10.1001L12.06 11.1601C12.254 11.1975 12.4326 11.2915 12.5732 11.4304C12.7138 11.5692 12.8101 11.7465 12.85 11.9401L13.9 17.1301L17.42 6.58006L6.87 10.1001Z" fill="#111827"/>
</g>
<defs>
<clipPath id="clip0_1_5089">
<rect width="24" height="24" fill="white"/>
</clipPath>
</defs>
</svg>
