<svg width="24" height="24" viewBox="0 0 24 24" fill="none" xmlns="http://www.w3.org/2000/svg">
<g clip-path="url(#clip0_1_5191)">
<path d="M21.94 16.64C21.898 16.3916 21.8344 16.1474 21.75 15.91C21.695 15.7495 21.6 15.6056 21.4741 15.4919C21.3481 15.3781 21.1953 15.2984 21.03 15.26L15.03 13.89C14.8671 13.8531 14.6976 13.8575 14.5369 13.9029C14.3762 13.9484 14.2294 14.0333 14.11 14.15C13.97 14.28 13.96 14.29 13.31 15.53C11.1541 14.5315 9.4241 12.798 8.43 10.64C9.71 10 9.72 10 9.85 9.85C9.96671 9.73056 10.0516 9.58379 10.0971 9.42308C10.1425 9.26238 10.1469 9.09286 10.11 8.93L8.74 3C8.70165 2.8347 8.62186 2.68187 8.50814 2.55591C8.39443 2.42995 8.25053 2.335 8.09 2.28C7.85647 2.19659 7.61531 2.1363 7.37 2.1C7.11725 2.0414 6.85933 2.0079 6.6 2C5.38 2 4.20998 2.48464 3.34731 3.34731C2.48464 4.20998 2 5.38 2 6.6C2.00529 10.6827 3.62949 14.5967 6.5164 17.4836C9.40331 20.3705 13.3173 21.9947 17.4 22C18.0041 22 18.6022 21.881 19.1603 21.6498C19.7184 21.4187 20.2255 21.0798 20.6527 20.6527C21.0798 20.2255 21.4187 19.7184 21.6498 19.1603C21.881 18.6022 22 18.0041 22 17.4C22.0003 17.1455 21.9802 16.8913 21.94 16.64ZM17.4 20C13.8469 19.9974 10.4401 18.5847 7.92769 16.0723C5.41528 13.5599 4.00265 10.1531 4 6.6C4.00263 5.91125 4.27741 5.25146 4.76443 4.76443C5.25146 4.27741 5.91125 4.00263 6.6 4H6.93L8 8.64L7.45 8.93C6.58 9.38 5.95 9.71 6.28 10.51C6.86622 12.1696 7.81477 13.6777 9.05674 14.9249C10.2987 16.172 11.8029 17.1269 13.46 17.72C14.3 18.06 14.63 17.43 15.08 16.56L15.37 16.01L20 17.07V17.4C19.9974 18.0888 19.7226 18.7485 19.2356 19.2356C18.7485 19.7226 18.0888 19.9974 17.4 20Z" fill="#111827"/>
<path d="M15.8 8.69996C15.9963 8.89234 16.2602 9.00011 16.535 9.00011C16.8098 9.00011 17.0737 8.89234 17.27 8.69996L18 7.99996L18.73 8.72996C18.9289 8.92489 19.1971 9.03282 19.4756 9.03001C19.7541 9.0272 20.0201 8.91387 20.215 8.71496C20.4099 8.51604 20.5179 8.24784 20.5151 7.96935C20.5122 7.69086 20.3989 7.42489 20.2 7.22996L19.47 6.49996L20.2 5.76996C20.2965 5.67343 20.3731 5.55885 20.4253 5.43274C20.4776 5.30662 20.5044 5.17146 20.5044 5.03496C20.5044 4.89845 20.4776 4.76329 20.4253 4.63718C20.3731 4.51107 20.2965 4.39648 20.2 4.29996C20.1035 4.20343 19.9889 4.12687 19.8628 4.07463C19.7367 4.02239 19.6015 3.99551 19.465 3.99551C19.3285 3.99551 19.1933 4.02239 19.0672 4.07463C18.9411 4.12687 18.8265 4.20343 18.73 4.29996L18 4.99996L17.27 4.26996C17.0711 4.07502 16.8029 3.96709 16.5244 3.9699C16.2459 3.97272 15.9799 4.08604 15.785 4.28496C15.5901 4.48387 15.4821 4.75207 15.4849 5.03056C15.4878 5.30905 15.6011 5.57502 15.8 5.76996L16.53 6.49996L15.8 7.22996C15.6076 7.42623 15.4999 7.69012 15.4999 7.96496C15.4999 8.2398 15.6076 8.50368 15.8 8.69996Z" fill="#111827"/>
</g>
<defs>
<clipPath id="clip0_1_5191">
<rect width="24" height="24" fill="white"/>
</clipPath>
</defs>
</svg>
