<svg width="24" height="24" viewBox="0 0 24 24" fill="none" xmlns="http://www.w3.org/2000/svg">
<g clip-path="url(#clip0_1_5405)">
<path d="M16 5.99995C15.7348 5.99995 15.4804 6.1053 15.2929 6.29284C15.1054 6.48038 15 6.73473 15 6.99995V10.8199L14.86 10.6699L9.76 6.45995C9.45297 6.21394 9.08301 6.05913 8.69227 6.01316C8.30154 5.9672 7.90575 6.03191 7.55 6.19995C7.25018 6.34349 6.99714 6.56901 6.82016 6.85039C6.64319 7.13178 6.54952 7.45753 6.55 7.78995V16.2099C6.54952 16.5424 6.64319 16.8681 6.82016 17.1495C6.99714 17.4309 7.25018 17.6564 7.55 17.7999C7.83587 17.9299 8.14597 17.9981 8.46 17.9999C8.93332 18.0005 9.39239 17.8381 9.76 17.5399L14.86 13.3299L15 13.1799V16.9999C15 17.2652 15.1054 17.5195 15.2929 17.7071C15.4804 17.8946 15.7348 17.9999 16 17.9999C16.2652 17.9999 16.5196 17.8946 16.7071 17.7071C16.8946 17.5195 17 17.2652 17 16.9999V6.99995C17 6.73473 16.8946 6.48038 16.7071 6.29284C16.5196 6.1053 16.2652 5.99995 16 5.99995ZM8.5 15.9099V7.99995L13.32 11.9999L8.5 15.9099Z" fill="#111827"/>
</g>
<defs>
<clipPath id="clip0_1_5405">
<rect width="24" height="24" fill="white"/>
</clipPath>
</defs>
</svg>
