<svg width="205" height="25" viewBox="0 0 205 25" fill="none" xmlns="http://www.w3.org/2000/svg">
<path d="M0.818182 0.727272H4.18182L12.0909 20.0455H12.3636L20.2727 0.727272H23.6364V24H21V6.31818H20.7727L13.5 24H10.9545L3.68182 6.31818H3.45455V24H0.818182V0.727272ZM36.2415 24.3636C34.5597 24.3636 33.1089 23.9924 31.8892 23.25C30.6771 22.5 29.7415 21.4545 29.0824 20.1136C28.4309 18.7652 28.1051 17.197 28.1051 15.4091C28.1051 13.6212 28.4309 12.0455 29.0824 10.6818C29.7415 9.31061 30.6581 8.24242 31.8324 7.47727C33.0142 6.70455 34.393 6.31818 35.9688 6.31818C36.8778 6.31818 37.7756 6.4697 38.6619 6.77273C39.5483 7.07576 40.3551 7.56818 41.0824 8.25C41.8097 8.92424 42.3892 9.81818 42.821 10.9318C43.2528 12.0455 43.4688 13.4167 43.4688 15.0455V16.1818H30.0142V13.8636H40.7415C40.7415 12.8788 40.5445 12 40.1506 11.2273C39.7642 10.4545 39.2112 9.8447 38.4915 9.39773C37.7794 8.95076 36.9384 8.72727 35.9688 8.72727C34.9006 8.72727 33.9763 8.99242 33.196 9.52273C32.4233 10.0455 31.8286 10.7273 31.4119 11.5682C30.9953 12.4091 30.7869 13.3106 30.7869 14.2727V15.8182C30.7869 17.1364 31.0142 18.2538 31.4688 19.1705C31.9309 20.0795 32.571 20.7727 33.3892 21.25C34.2074 21.7197 35.1581 21.9545 36.2415 21.9545C36.946 21.9545 37.5824 21.8561 38.1506 21.6591C38.7263 21.4545 39.2225 21.1515 39.6392 20.75C40.0559 20.3409 40.3778 19.8333 40.6051 19.2273L43.196 19.9545C42.9233 20.8333 42.465 21.6061 41.821 22.2727C41.1771 22.9318 40.3816 23.447 39.4347 23.8182C38.4877 24.1818 37.4233 24.3636 36.2415 24.3636ZM54.1392 24.3636C52.6847 24.3636 51.4006 23.9962 50.2869 23.2614C49.1733 22.5189 48.3021 21.4735 47.6733 20.125C47.0445 18.7689 46.7301 17.1667 46.7301 15.3182C46.7301 13.4848 47.0445 11.8939 47.6733 10.5455C48.3021 9.19697 49.1771 8.1553 50.2983 7.42045C51.4195 6.68561 52.715 6.31818 54.1847 6.31818C55.321 6.31818 56.2188 6.50758 56.8778 6.88636C57.5445 7.25758 58.0521 7.68182 58.4006 8.15909C58.7566 8.62879 59.0331 9.01515 59.2301 9.31818H59.4574V0.727272H62.1392V24H59.5483V21.3182H59.2301C59.0331 21.6364 58.7528 22.0379 58.3892 22.5227C58.0256 23 57.5066 23.428 56.8324 23.8068C56.1581 24.178 55.2604 24.3636 54.1392 24.3636ZM54.5028 21.9545C55.5786 21.9545 56.4877 21.6742 57.2301 21.1136C57.9725 20.5455 58.5369 19.7614 58.9233 18.7614C59.3097 17.7538 59.5028 16.5909 59.5028 15.2727C59.5028 13.9697 59.3134 12.8295 58.9347 11.8523C58.5559 10.8674 57.9953 10.1023 57.2528 9.55682C56.5104 9.00379 55.5938 8.72727 54.5028 8.72727C53.3665 8.72727 52.4195 9.01894 51.6619 9.60227C50.9119 10.178 50.3475 10.9621 49.9688 11.9545C49.5975 12.9394 49.4119 14.0455 49.4119 15.2727C49.4119 16.5152 49.6013 17.6439 49.9801 18.6591C50.3665 19.6667 50.9347 20.4697 51.6847 21.0682C52.4422 21.6591 53.3816 21.9545 54.5028 21.9545ZM67.4233 24V6.54545H70.1051V24H67.4233ZM68.7869 3.63636C68.2642 3.63636 67.8134 3.45833 67.4347 3.10227C67.0634 2.74621 66.8778 2.31818 66.8778 1.81818C66.8778 1.31818 67.0634 0.890151 67.4347 0.53409C67.8134 0.17803 68.2642 0 68.7869 0C69.3097 0 69.7566 0.17803 70.1278 0.53409C70.5066 0.890151 70.696 1.31818 70.696 1.81818C70.696 2.31818 70.5066 2.74621 70.1278 3.10227C69.7566 3.45833 69.3097 3.63636 68.7869 3.63636ZM82.108 24.3636C80.4716 24.3636 79.0625 23.9773 77.8807 23.2045C76.6989 22.4318 75.7898 21.3674 75.1534 20.0114C74.517 18.6553 74.1989 17.1061 74.1989 15.3636C74.1989 13.5909 74.5246 12.0265 75.1761 10.6705C75.8352 9.30682 76.7519 8.24242 77.9261 7.47727C79.108 6.70455 80.4867 6.31818 82.0625 6.31818C83.2898 6.31818 84.3958 6.54545 85.3807 7C86.3655 7.45455 87.1723 8.09091 87.8011 8.90909C88.4299 9.72727 88.8201 10.6818 88.9716 11.7727H86.2898C86.0852 10.9773 85.6307 10.2727 84.9261 9.65909C84.2292 9.03788 83.2898 8.72727 82.108 8.72727C81.0625 8.72727 80.1458 9 79.358 9.54545C78.5777 10.0833 77.9678 10.8447 77.5284 11.8295C77.0966 12.8068 76.8807 13.9545 76.8807 15.2727C76.8807 16.6212 77.0928 17.7955 77.517 18.7955C77.9489 19.7955 78.5549 20.572 79.3352 21.125C80.1231 21.678 81.0473 21.9545 82.108 21.9545C82.8049 21.9545 83.4375 21.8333 84.0057 21.5909C84.5739 21.3485 85.0549 21 85.4489 20.5455C85.8428 20.0909 86.1231 19.5455 86.2898 18.9091H88.9716C88.8201 19.9394 88.4451 20.8674 87.8466 21.6932C87.2557 22.5114 86.4716 23.1629 85.4943 23.6477C84.5246 24.125 83.3958 24.3636 82.108 24.3636ZM98.0284 24.4091C96.9223 24.4091 95.9186 24.2008 95.017 23.7841C94.1155 23.3598 93.3996 22.75 92.8693 21.9545C92.339 21.1515 92.0739 20.1818 92.0739 19.0455C92.0739 18.0455 92.2708 17.2348 92.6648 16.6136C93.0587 15.9848 93.5852 15.4924 94.2443 15.1364C94.9034 14.7803 95.6307 14.5152 96.4261 14.3409C97.2292 14.1591 98.036 14.0152 98.8466 13.9091C99.9072 13.7727 100.767 13.6705 101.426 13.6023C102.093 13.5265 102.578 13.4015 102.881 13.2273C103.191 13.053 103.347 12.75 103.347 12.3182V12.2273C103.347 11.1061 103.04 10.2348 102.426 9.61364C101.82 8.99242 100.9 8.68182 99.6648 8.68182C98.3845 8.68182 97.3807 8.96212 96.6534 9.52273C95.9261 10.0833 95.4148 10.6818 95.1193 11.3182L92.5739 10.4091C93.0284 9.34848 93.6345 8.52273 94.392 7.93182C95.1572 7.33333 95.9905 6.91667 96.892 6.68182C97.8011 6.43939 98.6951 6.31818 99.5739 6.31818C100.134 6.31818 100.778 6.38636 101.506 6.52273C102.241 6.65151 102.949 6.92045 103.631 7.32954C104.32 7.73864 104.892 8.35606 105.347 9.18182C105.801 10.0076 106.028 11.1136 106.028 12.5V24H103.347V21.6364H103.21C103.028 22.0152 102.725 22.4205 102.301 22.8523C101.877 23.2841 101.313 23.6515 100.608 23.9545C99.9034 24.2576 99.0436 24.4091 98.0284 24.4091ZM98.4375 22C99.4981 22 100.392 21.7917 101.119 21.375C101.854 20.9583 102.407 20.4205 102.778 19.7614C103.157 19.1023 103.347 18.4091 103.347 17.6818V15.2273C103.233 15.3636 102.983 15.4886 102.597 15.6023C102.218 15.7083 101.778 15.803 101.278 15.8864C100.786 15.9621 100.305 16.0303 99.8352 16.0909C99.3731 16.1439 98.9981 16.1894 98.7102 16.2273C98.0133 16.3182 97.3617 16.4659 96.7557 16.6705C96.1572 16.8674 95.6723 17.1667 95.3011 17.5682C94.9375 17.9621 94.7557 18.5 94.7557 19.1818C94.7557 20.1136 95.1004 20.8182 95.7898 21.2955C96.4867 21.7652 97.3693 22 98.4375 22ZM113.605 0.727272V24H110.923V0.727272H113.605ZM130.699 0.727272V24H127.881V0.727272H130.699ZM143.077 24.3636C141.44 24.3636 140.031 23.9773 138.849 23.2045C137.668 22.4318 136.759 21.3674 136.122 20.0114C135.486 18.6553 135.168 17.1061 135.168 15.3636C135.168 13.5909 135.493 12.0265 136.145 10.6705C136.804 9.30682 137.721 8.24242 138.895 7.47727C140.077 6.70455 141.455 6.31818 143.031 6.31818C144.259 6.31818 145.365 6.54545 146.349 7C147.334 7.45455 148.141 8.09091 148.77 8.90909C149.399 9.72727 149.789 10.6818 149.94 11.7727H147.259C147.054 10.9773 146.599 10.2727 145.895 9.65909C145.198 9.03788 144.259 8.72727 143.077 8.72727C142.031 8.72727 141.115 9 140.327 9.54545C139.546 10.0833 138.937 10.8447 138.497 11.8295C138.065 12.8068 137.849 13.9545 137.849 15.2727C137.849 16.6212 138.062 17.7955 138.486 18.7955C138.918 19.7955 139.524 20.572 140.304 21.125C141.092 21.678 142.016 21.9545 143.077 21.9545C143.774 21.9545 144.406 21.8333 144.974 21.5909C145.543 21.3485 146.024 21 146.418 20.5455C146.812 20.0909 147.092 19.5455 147.259 18.9091H149.94C149.789 19.9394 149.414 20.8674 148.815 21.6932C148.224 22.5114 147.44 23.1629 146.463 23.6477C145.493 24.125 144.365 24.3636 143.077 24.3636ZM160.952 24.3636C159.376 24.3636 157.993 23.9886 156.804 23.2386C155.622 22.4886 154.698 21.4394 154.031 20.0909C153.372 18.7424 153.043 17.1667 153.043 15.3636C153.043 13.5455 153.372 11.9583 154.031 10.6023C154.698 9.24621 155.622 8.19318 156.804 7.44318C157.993 6.69318 159.376 6.31818 160.952 6.31818C162.527 6.31818 163.906 6.69318 165.088 7.44318C166.277 8.19318 167.202 9.24621 167.861 10.6023C168.527 11.9583 168.861 13.5455 168.861 15.3636C168.861 17.1667 168.527 18.7424 167.861 20.0909C167.202 21.4394 166.277 22.4886 165.088 23.2386C163.906 23.9886 162.527 24.3636 160.952 24.3636ZM160.952 21.9545C162.149 21.9545 163.134 21.6477 163.906 21.0341C164.679 20.4205 165.251 19.6136 165.622 18.6136C165.993 17.6136 166.179 16.5303 166.179 15.3636C166.179 14.197 165.993 13.1098 165.622 12.1023C165.251 11.0947 164.679 10.2803 163.906 9.65909C163.134 9.03788 162.149 8.72727 160.952 8.72727C159.755 8.72727 158.77 9.03788 157.997 9.65909C157.224 10.2803 156.652 11.0947 156.281 12.1023C155.91 13.1098 155.724 14.197 155.724 15.3636C155.724 16.5303 155.91 17.6136 156.281 18.6136C156.652 19.6136 157.224 20.4205 157.997 21.0341C158.77 21.6477 159.755 21.9545 160.952 21.9545ZM175.636 13.5V24H172.955V6.54545H175.545V9.27273H175.773C176.182 8.38636 176.803 7.67424 177.636 7.13636C178.47 6.59091 179.545 6.31818 180.864 6.31818C182.045 6.31818 183.08 6.56061 183.966 7.04545C184.852 7.52273 185.542 8.25 186.034 9.22727C186.527 10.197 186.773 11.4242 186.773 12.9091V24H184.091V13.0909C184.091 11.7197 183.735 10.6515 183.023 9.88636C182.311 9.11364 181.333 8.72727 180.091 8.72727C179.235 8.72727 178.47 8.91288 177.795 9.28409C177.129 9.6553 176.602 10.197 176.216 10.9091C175.83 11.6212 175.636 12.4848 175.636 13.5ZM204.037 10.4545L201.628 11.1364C201.476 10.7348 201.253 10.3447 200.957 9.96591C200.67 9.57955 200.276 9.26136 199.776 9.01136C199.276 8.76136 198.635 8.63636 197.855 8.63636C196.787 8.63636 195.897 8.88258 195.185 9.375C194.48 9.85985 194.128 10.4773 194.128 11.2273C194.128 11.8939 194.37 12.4205 194.855 12.8068C195.34 13.1932 196.098 13.5152 197.128 13.7727L199.719 14.4091C201.279 14.7879 202.442 15.3674 203.207 16.1477C203.973 16.9205 204.355 17.9167 204.355 19.1364C204.355 20.1364 204.067 21.0303 203.491 21.8182C202.923 22.6061 202.128 23.2273 201.105 23.6818C200.082 24.1364 198.893 24.3636 197.537 24.3636C195.757 24.3636 194.283 23.9773 193.116 23.2045C191.95 22.4318 191.211 21.303 190.901 19.8182L193.446 19.1818C193.688 20.1212 194.147 20.8258 194.821 21.2955C195.503 21.7652 196.393 22 197.491 22C198.741 22 199.734 21.7348 200.469 21.2045C201.211 20.6667 201.582 20.0227 201.582 19.2727C201.582 18.6667 201.37 18.1591 200.946 17.75C200.522 17.3333 199.87 17.0227 198.991 16.8182L196.082 16.1364C194.484 15.7576 193.31 15.1705 192.56 14.375C191.817 13.572 191.446 12.5682 191.446 11.3636C191.446 10.3788 191.723 9.50758 192.276 8.75C192.836 7.99242 193.598 7.39773 194.56 6.96591C195.529 6.53409 196.628 6.31818 197.855 6.31818C199.582 6.31818 200.938 6.69697 201.923 7.45454C202.916 8.21212 203.62 9.21212 204.037 10.4545Z" fill="#373855"/>
</svg>
