<svg width="24" height="24" viewBox="0 0 24 24" fill="none" xmlns="http://www.w3.org/2000/svg">
<g clip-path="url(#clip0_1_6035)">
<path d="M19.917 5.9751C19.917 5.71098 19.8121 5.45768 19.6254 5.27093C19.4386 5.08417 19.1853 4.97925 18.9212 4.97925C18.6571 4.97925 18.4038 5.08417 18.217 5.27093C18.0302 5.45768 17.9253 5.71098 17.9253 5.9751V10.9544C17.9261 11.0854 17.901 11.2153 17.8514 11.3367C17.8018 11.458 17.7288 11.5684 17.6365 11.6614C17.5435 11.7537 17.4331 11.8267 17.3118 11.8763C17.1905 11.9258 17.0605 11.951 16.9295 11.9502H8.04649L10.7253 8.57427C10.8028 8.37382 10.8134 8.15367 10.7555 7.94671C10.6975 7.73975 10.5742 7.55709 10.4039 7.426C10.2336 7.29491 10.0255 7.22243 9.81058 7.21939C9.59569 7.21635 9.38558 7.28291 9.21163 7.40912L5.22823 12.3884C5.08682 12.565 5.00977 12.7845 5.00977 13.0108C5.00977 13.237 5.08682 13.4566 5.22823 13.6332L9.21163 18.6124C9.30536 18.728 9.42379 18.8211 9.5582 18.8848C9.69262 18.9486 9.83962 18.9814 9.9884 18.9809C10.213 18.9796 10.4306 18.9024 10.6058 18.7618C10.7081 18.6796 10.7932 18.5781 10.8561 18.4629C10.919 18.3477 10.9585 18.2213 10.9724 18.0908C10.9863 17.9603 10.9743 17.8284 10.937 17.7026C10.8997 17.5767 10.8379 17.4595 10.7552 17.3577L8.10624 14.0116H16.9892C17.7816 14.0116 18.5415 13.6969 19.1017 13.1366C19.662 12.5763 19.9768 11.8164 19.9768 11.0241L19.917 5.9751Z" fill="#111827"/>
</g>
<defs>
<clipPath id="clip0_1_6035">
<rect width="24" height="24" fill="white"/>
</clipPath>
</defs>
</svg>
