<svg width="24" height="24" viewBox="0 0 24 24" fill="none" xmlns="http://www.w3.org/2000/svg">
<g clip-path="url(#clip0_1_6102)">
<path d="M17 8C16.7348 8 16.4804 8.10536 16.2929 8.2929C16.1054 8.48043 16 8.73479 16 9V14.59L7.71 6.29C7.5217 6.1017 7.2663 5.99591 7 5.99591C6.7337 5.99591 6.47831 6.1017 6.29 6.29C6.1017 6.47831 5.99591 6.7337 5.99591 7C5.99591 7.2663 6.1017 7.5217 6.29 7.71L14.59 16H9C8.73479 16 8.48043 16.1054 8.2929 16.2929C8.10536 16.4804 8 16.7348 8 17C8 17.2652 8.10536 17.5196 8.2929 17.7071C8.48043 17.8946 8.73479 18 9 18H17C17.2652 18 17.5196 17.8946 17.7071 17.7071C17.8946 17.5196 18 17.2652 18 17V9C18 8.73479 17.8946 8.48043 17.7071 8.2929C17.5196 8.10536 17.2652 8 17 8Z" fill="#111827"/>
</g>
<defs>
<clipPath id="clip0_1_6102">
<rect width="24" height="24" fill="white"/>
</clipPath>
</defs>
</svg>
