<svg width="24" height="24" viewBox="0 0 24 24" fill="none" xmlns="http://www.w3.org/2000/svg">
<g clip-path="url(#clip0_1_6240)">
<path d="M5 6.09V18.09L3.71 16.79C3.5217 16.6017 3.2663 16.4959 3 16.4959C2.7337 16.4959 2.47831 16.6017 2.29 16.79C2.1017 16.9783 1.99591 17.2337 1.99591 17.5C1.99591 17.7663 2.1017 18.0217 2.29 18.21L5.29 21.21C5.38297 21.3037 5.49357 21.3781 5.61543 21.4289C5.73728 21.4797 5.86799 21.5058 6 21.5058C6.13201 21.5058 6.26272 21.4797 6.38458 21.4289C6.50644 21.3781 6.61704 21.3037 6.71 21.21L9.71 18.21C9.80373 18.117 9.87812 18.0064 9.92889 17.8846C9.97966 17.7627 10.0058 17.632 10.0058 17.5C10.0058 17.368 9.97966 17.2373 9.92889 17.1154C9.87812 16.9936 9.80373 16.883 9.71 16.79C9.61704 16.6963 9.50644 16.6219 9.38458 16.5711C9.26272 16.5203 9.13201 16.4942 9 16.4942C8.86799 16.4942 8.73728 16.5203 8.61543 16.5711C8.49357 16.6219 8.38297 16.6963 8.29 16.79L7 18.09V6.09C6.99602 5.88513 7.03245 5.68148 7.10719 5.49069C7.18194 5.29989 7.29354 5.1257 7.43562 4.97804C7.5777 4.83039 7.74748 4.71218 7.93525 4.63015C8.12303 4.54813 8.32513 4.5039 8.53 4.5H11C11.2652 4.5 11.5196 4.39464 11.7071 4.20711C11.8946 4.01957 12 3.76522 12 3.5C12 3.23478 11.8946 2.98043 11.7071 2.79289C11.5196 2.60536 11.2652 2.5 11 2.5H8.53C8.06249 2.50392 7.60033 2.59989 7.16991 2.78244C6.73949 2.96498 6.34925 3.23051 6.02145 3.56388C5.69366 3.89724 5.43474 4.29191 5.25948 4.72534C5.08422 5.15878 4.99605 5.62249 5 6.09Z" fill="#111827"/>
<path d="M14.29 5.79C14.1017 5.9783 13.9959 6.2337 13.9959 6.5C13.9959 6.7663 14.1017 7.0217 14.29 7.21C14.4783 7.3983 14.7337 7.50409 15 7.50409C15.2663 7.50409 15.5217 7.3983 15.71 7.21L17 5.91V17.91C17.004 18.1149 16.9676 18.3185 16.8928 18.5093C16.8181 18.7001 16.7065 18.8743 16.5644 19.022C16.4223 19.1696 16.2525 19.2878 16.0647 19.3698C15.877 19.4519 15.6749 19.4961 15.47 19.5H13C12.7348 19.5 12.4804 19.6054 12.2929 19.7929C12.1054 19.9804 12 20.2348 12 20.5C12 20.7652 12.1054 21.0196 12.2929 21.2071C12.4804 21.3946 12.7348 21.5 13 21.5H15.47C15.9375 21.4961 16.3997 21.4001 16.8301 21.2176C17.2605 21.035 17.6508 20.7695 17.9785 20.4361C18.3063 20.1028 18.5653 19.7081 18.7405 19.2747C18.9158 18.8412 19.004 18.3775 19 17.91V5.91L20.29 7.21C20.383 7.30373 20.4936 7.37812 20.6154 7.42889C20.7373 7.47966 20.868 7.5058 21 7.5058C21.132 7.5058 21.2627 7.47966 21.3846 7.42889C21.5064 7.37812 21.617 7.30373 21.71 7.21C21.8037 7.11704 21.8781 7.00644 21.9289 6.88458C21.9797 6.76272 22.0058 6.63201 22.0058 6.5C22.0058 6.36799 21.9797 6.23728 21.9289 6.11542C21.8781 5.99356 21.8037 5.88296 21.71 5.79L18.71 2.79C18.617 2.69627 18.5064 2.62188 18.3846 2.57111C18.2627 2.52034 18.132 2.4942 18 2.4942C17.868 2.4942 17.7373 2.52034 17.6154 2.57111C17.4936 2.62188 17.383 2.69627 17.29 2.79L14.29 5.79Z" fill="#111827"/>
</g>
<defs>
<clipPath id="clip0_1_6240">
<rect width="24" height="24" fill="white"/>
</clipPath>
</defs>
</svg>
