<svg width="24" height="24" viewBox="0 0 24 24" fill="none" xmlns="http://www.w3.org/2000/svg">
<g clip-path="url(#clip0_1_6763)">
<path d="M18.45 6.19995C18.0943 6.03191 17.6985 5.9672 17.3078 6.01316C16.917 6.05913 16.5471 6.21394 16.24 6.45995L11.5 10.3799V7.78995C11.4961 7.45209 11.395 7.12251 11.2088 6.84057C11.0226 6.55862 10.7592 6.33623 10.45 6.19995C10.0943 6.03191 9.69849 5.9672 9.30775 6.01316C8.91702 6.05913 8.54705 6.21394 8.24002 6.45995L3.14002 10.6699C2.94003 10.8292 2.77851 11.0314 2.6675 11.2617C2.55649 11.492 2.49884 11.7443 2.49884 11.9999C2.49884 12.2556 2.55649 12.5079 2.6675 12.7382C2.77851 12.9685 2.94003 13.1707 3.14002 13.3299L8.24002 17.5399C8.60764 17.8381 9.06671 18.0005 9.54002 17.9999C9.85405 17.9981 10.1642 17.9299 10.45 17.7999C10.7592 17.6637 11.0226 17.4413 11.2088 17.1593C11.395 16.8774 11.4961 16.5478 11.5 16.2099V13.6199L16.24 17.5399C16.6076 17.8381 17.0667 18.0005 17.54 17.9999C17.8541 17.9981 18.1642 17.9299 18.45 17.7999C18.7592 17.6637 19.0226 17.4413 19.2088 17.1593C19.395 16.8774 19.4961 16.5478 19.5 16.2099V7.78995C19.4961 7.45209 19.395 7.12251 19.2088 6.84057C19.0226 6.55862 18.7592 6.33623 18.45 6.19995Z" fill="#111827"/>
</g>
<defs>
<clipPath id="clip0_1_6763">
<rect width="24" height="24" fill="white"/>
</clipPath>
</defs>
</svg>
