<svg width="24" height="24" viewBox="0 0 24 24" fill="none" xmlns="http://www.w3.org/2000/svg">
<g clip-path="url(#clip0_1_7029)">
<path d="M20.78 8.36996C20.6129 8.1631 20.3705 8.03107 20.1061 8.00294C19.8416 7.97481 19.5769 8.05288 19.37 8.21996C19.1631 8.38705 19.0311 8.62947 19.003 8.8939C18.9748 9.15832 19.0529 9.4231 19.22 9.62996C19.7252 10.3169 19.9977 11.1473 19.9977 12C19.9977 12.8527 19.7252 13.6831 19.22 14.37C19.1008 14.5169 19.0257 14.6947 19.0035 14.8826C18.9813 15.0706 19.0129 15.2609 19.0945 15.4316C19.1762 15.6023 19.3047 15.7463 19.4649 15.8469C19.6252 15.9475 19.8108 16.0006 20 16C20.1494 16.0005 20.297 15.9675 20.432 15.9035C20.567 15.8394 20.6859 15.746 20.78 15.63C21.5732 14.586 22.0026 13.311 22.0026 12C22.0026 10.6889 21.5732 9.41388 20.78 8.36996Z" fill="#111827"/>
<path d="M16.47 3.12006C16.318 3.03229 16.1455 2.98608 15.97 2.98608C15.7945 2.98608 15.622 3.03229 15.47 3.12006L9 7.57006H4C3.73478 7.57006 3.48043 7.67542 3.29289 7.86295C3.10536 8.05049 3 8.30484 3 8.57006V15.4301C3 15.6953 3.10536 15.9496 3.29289 16.1372C3.48043 16.3247 3.73478 16.4301 4 16.4301H9L15.41 20.8301C15.5856 20.9437 15.7909 21.0028 16 21.0001C16.2652 21.0001 16.5196 20.8947 16.7071 20.7072C16.8946 20.5196 17 20.2653 17 20.0001V4.00006C16.9995 3.81915 16.95 3.64177 16.8566 3.4868C16.7633 3.33183 16.6297 3.20508 16.47 3.12006Z" fill="#111827"/>
</g>
<defs>
<clipPath id="clip0_1_7029">
<rect width="24" height="24" fill="white"/>
</clipPath>
</defs>
</svg>
