<svg width="24" height="24" viewBox="0 0 24 24" fill="none" xmlns="http://www.w3.org/2000/svg">
<g clip-path="url(#clip0_1_4244)">
<path d="M13.54 18C13.0667 18.0006 12.6076 17.8381 12.24 17.54L7.14 13.33C6.94001 13.1708 6.7785 12.9685 6.66749 12.7383C6.55648 12.508 6.49883 12.2556 6.49883 12C6.49883 11.7444 6.55648 11.492 6.66749 11.2618C6.7785 11.0315 6.94001 10.8292 7.14 10.67L12.24 6.46001C12.547 6.214 12.917 6.05919 13.3077 6.01323C13.6985 5.96726 14.0943 6.03198 14.45 6.20001C14.7592 6.33629 15.0226 6.55868 15.2088 6.84063C15.395 7.12257 15.4961 7.45215 15.5 7.79001V16.21C15.4961 16.5479 15.395 16.8774 15.2088 17.1594C15.0226 17.4413 14.7592 17.6637 14.45 17.8C14.1641 17.93 13.854 17.9982 13.54 18ZM8.68001 12L13.5 16V8.09001L8.68001 12Z" fill="#111827"/>
</g>
<defs>
<clipPath id="clip0_1_4244">
<rect width="24" height="24" fill="white"/>
</clipPath>
</defs>
</svg>
