<svg width="24" height="24" viewBox="0 0 24 24" fill="none" xmlns="http://www.w3.org/2000/svg">
<g clip-path="url(#clip0_1_4419)">
<path d="M18.4 3H5.60002C4.88735 3.02609 4.21395 3.33306 3.72682 3.85391C3.23969 4.37476 2.97841 5.06718 3.00002 5.78V7C3.00002 7.26522 3.10538 7.51957 3.29291 7.70711C3.48045 7.89464 3.7348 8 4.00002 8C4.26524 8 4.51959 7.89464 4.70713 7.70711C4.89466 7.51957 5.00002 7.26522 5.00002 7V5.78C4.98238 5.59812 5.03455 5.41634 5.14597 5.2715C5.25738 5.12666 5.4197 5.0296 5.60002 5H18.4C18.5803 5.0296 18.7427 5.12666 18.8541 5.2715C18.9655 5.41634 19.0177 5.59812 19 5.78V18.22C19.0177 18.4019 18.9655 18.5837 18.8541 18.7285C18.7427 18.8733 18.5803 18.9704 18.4 19H17C16.7348 19 16.4804 19.1054 16.2929 19.2929C16.1054 19.4804 16 19.7348 16 20C16 20.2652 16.1054 20.5196 16.2929 20.7071C16.4804 20.8946 16.7348 21 17 21H18.4C19.1127 20.9739 19.7861 20.6669 20.2732 20.1461C20.7603 19.6252 21.0216 18.9328 21 18.22V5.78C21.0216 5.06718 20.7603 4.37476 20.2732 3.85391C19.7861 3.33306 19.1127 3.02609 18.4 3Z" fill="#111827"/>
<path d="M3.85999 14C3.72515 14.0169 3.59516 14.061 3.47796 14.1298C3.36076 14.1986 3.2588 14.2905 3.17832 14.4C3.09784 14.5095 3.04052 14.6342 3.00986 14.7666C2.9792 14.899 2.97584 15.0363 2.99999 15.17C3.04181 15.4309 3.18519 15.6646 3.39879 15.8201C3.61239 15.9757 3.87886 16.0403 4.13999 16C4.52504 15.9462 4.91734 15.9832 5.28548 16.1083C5.65362 16.2333 5.98737 16.4428 6.25999 16.72C6.62555 17.0842 6.87049 17.5519 6.96169 18.0598C7.0529 18.5677 6.98599 19.0913 6.76999 19.56C6.65732 19.8 6.64459 20.075 6.73461 20.3244C6.82462 20.5738 7.01 20.7772 7.24999 20.89C7.38238 20.9483 7.52532 20.979 7.66999 20.98C7.86126 20.9805 8.04865 20.9261 8.20994 20.8233C8.37123 20.7205 8.49966 20.5736 8.57999 20.4C8.92688 19.6626 9.06797 18.8452 8.98835 18.0342C8.90873 17.2233 8.61136 16.4489 8.12769 15.7931C7.64403 15.1372 6.99206 14.6244 6.2408 14.3087C5.48954 13.9931 4.66692 13.8864 3.85999 14Z" fill="#111827"/>
<path d="M3.85999 10.08C3.59477 10.1172 3.35517 10.2581 3.19389 10.4719C3.03261 10.6857 2.96286 10.9548 2.99999 11.22C3.03712 11.4852 3.17809 11.7248 3.39188 11.8861C3.60567 12.0474 3.87477 12.1172 4.13999 12.08C5.06293 11.9501 6.00344 12.037 6.88696 12.3339C7.77047 12.6307 8.57268 13.1292 9.22999 13.79C9.99757 14.5518 10.545 15.507 10.8143 16.5543C11.0836 17.6017 11.0649 18.7024 10.76 19.74C10.7202 19.8674 10.7063 20.0014 10.719 20.1342C10.7318 20.267 10.771 20.3959 10.8344 20.5133C10.8978 20.6308 10.984 20.7343 11.088 20.8179C11.192 20.9015 11.3117 20.9634 11.44 21C11.5328 21.0146 11.6272 21.0146 11.72 21C11.9431 21.0089 12.1628 20.9428 12.3441 20.8123C12.5253 20.6819 12.6576 20.4945 12.72 20.28C13.1035 18.9923 13.1565 17.6287 12.8741 16.3151C12.5917 15.0015 11.983 13.7802 11.1042 12.7639C10.2254 11.7475 9.10469 10.9689 7.84561 10.4998C6.58653 10.0308 5.22958 9.8864 3.89999 10.08H3.85999Z" fill="#111827"/>
<path d="M4 20C4.55228 20 5 19.5523 5 19C5 18.4477 4.55228 18 4 18C3.44772 18 3 18.4477 3 19C3 19.5523 3.44772 20 4 20Z" fill="#111827"/>
</g>
<defs>
<clipPath id="clip0_1_4419">
<rect width="24" height="24" fill="white"/>
</clipPath>
</defs>
</svg>
