<svg width="24" height="24" viewBox="0 0 24 24" fill="none" xmlns="http://www.w3.org/2000/svg">
<g clip-path="url(#clip0_1_4584)">
<path d="M18 17H13C12.7348 17 12.4804 16.8946 12.2929 16.7071C12.1054 16.5195 12 16.2652 12 16V7.07998L15.38 9.77998C15.5559 9.92114 15.7744 9.99867 16 9.99998C16.1502 9.99928 16.2983 9.96476 16.4334 9.89898C16.5684 9.83319 16.6869 9.73783 16.78 9.61998C16.9435 9.41274 17.0184 9.14927 16.9885 8.88701C16.9585 8.62475 16.826 8.38497 16.62 8.21998L11.62 4.21998C11.4435 4.08047 11.225 4.00458 11 4.00458C10.775 4.00458 10.5565 4.08047 10.38 4.21998L5.38 8.21998C5.19781 8.39194 5.08682 8.62603 5.06896 8.87592C5.05111 9.12581 5.12771 9.3733 5.2836 9.56942C5.43949 9.76554 5.66331 9.896 5.91079 9.93499C6.15826 9.97398 6.41136 9.91866 6.62 9.77998L10 7.07998V16C10 16.7956 10.3161 17.5587 10.8787 18.1213C11.4413 18.6839 12.2043 19 13 19H18C18.2652 19 18.5196 18.8946 18.7071 18.7071C18.8946 18.5195 19 18.2652 19 18C19 17.7348 18.8946 17.4804 18.7071 17.2929C18.5196 17.1053 18.2652 17 18 17Z" fill="#111827"/>
</g>
<defs>
<clipPath id="clip0_1_4584">
<rect width="24" height="24" fill="white"/>
</clipPath>
</defs>
</svg>
