<svg width="24" height="24" viewBox="0 0 24 24" fill="none" xmlns="http://www.w3.org/2000/svg">
<g clip-path="url(#clip0_1_5197)">
<path d="M19.74 4.26001C19.6573 4.17716 19.5591 4.11143 19.451 4.06659C19.3429 4.02174 19.227 3.99866 19.11 3.99866C18.993 3.99866 18.8771 4.02174 18.769 4.06659C18.6609 4.11143 18.5627 4.17716 18.48 4.26001L4.26 18.48C4.095 18.6484 4.00179 18.8743 4 19.11C3.99973 19.2862 4.05179 19.4586 4.14956 19.6052C4.24734 19.7518 4.38644 19.8661 4.54923 19.9335C4.71202 20.001 4.89118 20.0186 5.064 19.9842C5.23682 19.9497 5.39553 19.8647 5.52 19.74L19.74 5.52001C19.8228 5.43734 19.8886 5.33914 19.9334 5.23104C19.9783 5.12293 20.0014 5.00704 20.0014 4.89001C20.0014 4.77297 19.9783 4.65708 19.9334 4.54898C19.8886 4.44087 19.8228 4.34268 19.74 4.26001Z" fill="#111827"/>
<path d="M6.7 14.63C4.94813 12.3195 3.99993 9.49953 4 6.6C4.00263 5.91125 4.27741 5.25146 4.76443 4.76443C5.25146 4.27741 5.91125 4.00263 6.6 4H6.93L8 8.64L7.45 8.93C6.58 9.38 5.95 9.71 6.28 10.51C6.65338 11.5816 7.18238 12.5924 7.85 13.51L9.28 12.09C8.97649 11.6384 8.709 11.1636 8.48 10.67C9.71 10 9.72 10 9.85 9.85C9.96671 9.73056 10.0516 9.58379 10.0971 9.42308C10.1425 9.26238 10.1469 9.09286 10.11 8.93L8.74 3C8.70165 2.8347 8.62186 2.68187 8.50814 2.55591C8.39443 2.42995 8.25053 2.335 8.09 2.28C7.85647 2.19659 7.61531 2.1363 7.37 2.1C7.11725 2.0414 6.85933 2.0079 6.6 2C5.38 2 4.20998 2.48464 3.34731 3.34731C2.48464 4.20998 2 5.38 2 6.6C2.00087 10.0304 3.15227 13.3613 5.27 16.06L6.7 14.63Z" fill="#111827"/>
<path d="M21.94 16.64C21.898 16.3916 21.8344 16.1473 21.75 15.91C21.695 15.7495 21.6 15.6056 21.4741 15.4918C21.3481 15.3781 21.1953 15.2983 21.03 15.26L15.03 13.89C14.8671 13.8531 14.6976 13.8575 14.5369 13.9029C14.3762 13.9483 14.2294 14.0333 14.11 14.15C13.97 14.28 13.96 14.29 13.31 15.53C12.8208 15.2988 12.3495 15.0313 11.9 14.73L10.47 16.16C11.3693 16.8196 12.3597 17.345 13.41 17.72C14.25 18.06 14.58 17.43 15.03 16.56L15.32 16.01L20 17.07V17.4C19.9974 18.0887 19.7226 18.7485 19.2356 19.2356C18.7485 19.7226 18.0888 19.9974 17.4 20C14.5107 19.9935 11.7023 19.0457 9.4 17.3L7.94 18.73C10.6387 20.8477 13.9696 21.9991 17.4 22C18.0041 22 18.6022 21.881 19.1603 21.6498C19.7184 21.4187 20.2255 21.0798 20.6527 20.6527C21.0798 20.2255 21.4187 19.7184 21.6498 19.1603C21.881 18.6022 22 18.0041 22 17.4C22.0003 17.1455 21.9802 16.8913 21.94 16.64Z" fill="#111827"/>
</g>
<defs>
<clipPath id="clip0_1_5197">
<rect width="24" height="24" fill="white"/>
</clipPath>
</defs>
</svg>
