<svg width="24" height="24" viewBox="0 0 24 24" fill="none" xmlns="http://www.w3.org/2000/svg">
<g clip-path="url(#clip0_1_5244)">
<path d="M12 13C12.2652 13 12.5196 12.8946 12.7071 12.7071C12.8946 12.5196 13 12.2652 13 12V2C13 1.73478 12.8946 1.48043 12.7071 1.29289C12.5196 1.10536 12.2652 1 12 1C11.7348 1 11.4804 1.10536 11.2929 1.29289C11.1054 1.48043 11 1.73478 11 2V12C11 12.2652 11.1054 12.5196 11.2929 12.7071C11.4804 12.8946 11.7348 13 12 13Z" fill="#111827"/>
<path d="M16.59 3.11002C16.354 2.98802 16.0791 2.96478 15.8259 3.04542C15.5728 3.12606 15.362 3.30398 15.24 3.54002C15.118 3.77606 15.0948 4.0509 15.1754 4.30407C15.256 4.55725 15.434 4.76802 15.67 4.89002C17.2635 5.71269 18.5343 7.04688 19.2785 8.67844C20.0228 10.31 20.1972 12.1443 19.7739 13.8869C19.3506 15.6295 18.3541 17.1794 16.9443 18.2877C15.5346 19.396 13.7933 19.9985 12 19.9985C10.2067 19.9985 8.46543 19.396 7.05565 18.2877C5.64587 17.1794 4.64936 15.6295 4.22606 13.8869C3.80277 12.1443 3.97724 10.31 4.72148 8.67844C5.46571 7.04688 6.73655 5.71269 8.33 4.89002C8.44688 4.82961 8.55071 4.74677 8.63557 4.64624C8.72043 4.5457 8.78466 4.42943 8.82459 4.30407C8.86452 4.17872 8.87937 4.04672 8.86829 3.91562C8.8572 3.78453 8.82041 3.65689 8.76 3.54002C8.69959 3.42314 8.61675 3.31931 8.51622 3.23445C8.41568 3.14958 8.29941 3.08535 8.17406 3.04542C8.0487 3.0055 7.9167 2.99065 7.7856 3.00173C7.65451 3.01281 7.52688 3.04961 7.41 3.11002C5.41869 4.1388 3.83074 5.80675 2.90097 7.84617C1.9712 9.88559 1.75354 12.1782 2.28291 14.3562C2.81228 16.5342 4.05799 18.4711 5.82012 19.8563C7.58225 21.2414 9.75864 21.9944 12 21.9944C14.2414 21.9944 16.4177 21.2414 18.1799 19.8563C19.942 18.4711 21.1877 16.5342 21.7171 14.3562C22.2465 12.1782 22.0288 9.88559 21.099 7.84617C20.1693 5.80675 18.5813 4.1388 16.59 3.11002Z" fill="#111827"/>
</g>
<defs>
<clipPath id="clip0_1_5244">
<rect width="24" height="24" fill="white"/>
</clipPath>
</defs>
</svg>
