<svg width="24" height="24" viewBox="0 0 24 24" fill="none" xmlns="http://www.w3.org/2000/svg">
<g clip-path="url(#clip0_1_5285)">
<path d="M12 8C11.2915 7.99895 10.6055 8.24867 10.0635 8.70493C9.52151 9.16119 9.15848 9.79455 9.0387 10.4928C8.91893 11.1911 9.05015 11.9092 9.40912 12.52C9.7681 13.1309 10.3317 13.5949 11 13.83C10.9952 13.8866 10.9952 13.9434 11 14V20C11 20.2652 11.1053 20.5196 11.2929 20.7071C11.4804 20.8946 11.7348 21 12 21C12.2652 21 12.5196 20.8946 12.7071 20.7071C12.8946 20.5196 13 20.2652 13 20V14C13.0048 13.9434 13.0048 13.8866 13 13.83C13.6683 13.5949 14.2319 13.1309 14.5909 12.52C14.9498 11.9092 15.0811 11.1911 14.9613 10.4928C14.8415 9.79455 14.4785 9.16119 13.9365 8.70493C13.3945 8.24867 12.7085 7.99895 12 8ZM12 12C11.8022 12 11.6089 11.9414 11.4444 11.8315C11.28 11.7216 11.1518 11.5654 11.0761 11.3827C11.0004 11.2 10.9806 10.9989 11.0192 10.8049C11.0578 10.6109 11.153 10.4327 11.2929 10.2929C11.4327 10.153 11.6109 10.0578 11.8049 10.0192C11.9989 9.98063 12.1999 10.0004 12.3827 10.0761C12.5654 10.1518 12.7216 10.28 12.8315 10.4444C12.9413 10.6089 13 10.8022 13 11C13 11.2652 12.8946 11.5196 12.7071 11.7071C12.5196 11.8946 12.2652 12 12 12Z" fill="#111827"/>
<path d="M3.5 11C3.52731 9.98757 3.77815 8.99368 4.23456 8.08951C4.69096 7.18535 5.34164 6.39328 6.14 5.77003C6.34422 5.60029 6.47264 5.35638 6.49702 5.09196C6.5214 4.82753 6.43974 4.56425 6.27 4.36003C6.18595 4.25891 6.08281 4.17534 5.96647 4.11408C5.85013 4.05282 5.72285 4.01508 5.59192 4.00301C5.3275 3.97863 5.06422 4.06029 4.86 4.23003C3.83433 5.03995 3.00101 6.0672 2.42001 7.23784C1.83901 8.40848 1.5248 9.69338 1.5 11C1.5248 12.3067 1.83901 13.5916 2.42001 14.7622C3.00101 15.9329 3.83433 16.9601 4.86 17.77C4.96112 17.8541 5.0778 17.9174 5.20338 17.9563C5.32897 17.9953 5.46099 18.0091 5.59192 17.9971C5.72285 17.985 5.85013 17.9472 5.96647 17.886C6.08281 17.8247 6.18595 17.7411 6.27 17.64C6.35405 17.5389 6.41735 17.4222 6.4563 17.2966C6.49526 17.1711 6.50909 17.039 6.49702 16.9081C6.48495 16.7772 6.44721 16.6499 6.38595 16.5336C6.32469 16.4172 6.24112 16.3141 6.14 16.23C5.34164 15.6068 4.69096 14.8147 4.23456 13.9106C3.77815 13.0064 3.52731 12.0125 3.5 11Z" fill="#111827"/>
<path d="M16.64 6.24C16.4354 6.10406 16.188 6.04816 15.9448 6.08297C15.7017 6.11778 15.4798 6.24086 15.3216 6.42874C15.1634 6.61663 15.0799 6.85617 15.0869 7.10169C15.094 7.34721 15.1912 7.58155 15.36 7.76C15.8542 8.1468 16.2572 8.63754 16.5407 9.19745C16.8241 9.75736 16.9809 10.3727 17 11C16.9809 11.6273 16.8241 12.2426 16.5407 12.8026C16.2572 13.3625 15.8542 13.8532 15.36 14.24C15.2053 14.3723 15.0946 14.5487 15.0428 14.7456C14.991 14.9425 15.0005 15.1505 15.0701 15.3418C15.1396 15.5331 15.266 15.6987 15.4321 15.8163C15.5983 15.9339 15.7964 15.998 16 16C16.2349 15.9977 16.4615 15.9127 16.64 15.76C17.3615 15.191 17.9475 14.4688 18.3557 13.6456C18.7638 12.8224 18.9839 11.9187 19 11C18.9839 10.0813 18.7638 9.17763 18.3557 8.3544C17.9475 7.53118 17.3615 6.80896 16.64 6.24Z" fill="#111827"/>
<path d="M8.76 6.36002C8.58931 6.15993 8.34667 6.03515 8.08463 6.01269C7.82259 5.99023 7.56225 6.0719 7.36 6.24002C6.63849 6.80897 6.05245 7.53119 5.6443 8.35442C5.23614 9.17765 5.01607 10.0813 5 11C5.01607 11.9187 5.23614 12.8224 5.6443 13.6456C6.05245 14.4688 6.63849 15.1911 7.36 15.76C7.56225 15.9281 7.82259 16.0098 8.08463 15.9873C8.34667 15.9649 8.58931 15.8401 8.76 15.64C8.92812 15.4378 9.00979 15.1774 8.98733 14.9154C8.96487 14.6534 8.84008 14.4107 8.64 14.24C8.14582 13.8532 7.74275 13.3625 7.45934 12.8026C7.17593 12.2427 7.01911 11.6273 7 11C7.01911 10.3728 7.17593 9.75737 7.45934 9.19746C7.74275 8.63755 8.14582 8.14682 8.64 7.76002C8.84008 7.58933 8.96487 7.34668 8.98733 7.08465C9.00979 6.82261 8.92812 6.56227 8.76 6.36002Z" fill="#111827"/>
<path d="M19.14 4.23003C19.0389 4.14598 18.9222 4.08268 18.7966 4.04372C18.671 4.00477 18.539 3.99094 18.4081 4.00301C18.2771 4.01508 18.1499 4.05282 18.0335 4.11408C17.9172 4.17534 17.814 4.25891 17.73 4.36003C17.646 4.46115 17.5826 4.57783 17.5437 4.70341C17.5047 4.829 17.4909 4.96102 17.503 5.09195C17.5151 5.22288 17.5528 5.35015 17.6141 5.4665C17.6753 5.58284 17.7589 5.68598 17.86 5.77003C18.6584 6.39328 19.309 7.18534 19.7654 8.08951C20.2218 8.99367 20.4727 9.98757 20.5 11C20.4727 12.0125 20.2218 13.0064 19.7654 13.9105C19.309 14.8147 18.6584 15.6068 17.86 16.23C17.6558 16.3998 17.5274 16.6437 17.503 16.9081C17.4786 17.1725 17.5603 17.4358 17.73 17.64C17.8997 17.8442 18.1437 17.9727 18.4081 17.997C18.6725 18.0214 18.9358 17.9398 19.14 17.77C20.1657 16.9601 20.999 15.9329 21.58 14.7622C22.161 13.5916 22.4752 12.3067 22.5 11C22.4752 9.69338 22.161 8.40848 21.58 7.23784C20.999 6.0672 20.1657 5.03995 19.14 4.23003Z" fill="#111827"/>
</g>
<defs>
<clipPath id="clip0_1_5285">
<rect width="24" height="24" fill="white"/>
</clipPath>
</defs>
</svg>
