<svg width="24" height="24" viewBox="0 0 24 24" fill="none" xmlns="http://www.w3.org/2000/svg">
<g clip-path="url(#clip0_1_5518)">
<path d="M21 6.00004H16V4.33004C15.9765 3.68985 15.7002 3.08509 15.2316 2.64833C14.7629 2.21156 14.1402 1.97843 13.5 2.00004H10.5C9.85975 1.97843 9.23706 2.21156 8.76843 2.64833C8.2998 3.08509 8.02346 3.68985 8 4.33004V6.00004H3C2.73478 6.00004 2.48043 6.10539 2.29289 6.29293C2.10536 6.48047 2 6.73482 2 7.00004C2 7.26525 2.10536 7.51961 2.29289 7.70714C2.48043 7.89468 2.73478 8.00004 3 8.00004H4V19C4 19.7957 4.31607 20.5587 4.87868 21.1214C5.44129 21.684 6.20435 22 7 22H17C17.7956 22 18.5587 21.684 19.1213 21.1214C19.6839 20.5587 20 19.7957 20 19V8.00004H21C21.2652 8.00004 21.5196 7.89468 21.7071 7.70714C21.8946 7.51961 22 7.26525 22 7.00004C22 6.73482 21.8946 6.48047 21.7071 6.29293C21.5196 6.10539 21.2652 6.00004 21 6.00004ZM10 4.33004C10 4.17004 10.21 4.00004 10.5 4.00004H13.5C13.79 4.00004 14 4.17004 14 4.33004V6.00004H10V4.33004ZM18 19C18 19.2653 17.8946 19.5196 17.7071 19.7071C17.5196 19.8947 17.2652 20 17 20H7C6.73478 20 6.48043 19.8947 6.29289 19.7071C6.10536 19.5196 6 19.2653 6 19V8.00004H18V19Z" fill="#111827"/>
</g>
<defs>
<clipPath id="clip0_1_5518">
<rect width="24" height="24" fill="white"/>
</clipPath>
</defs>
</svg>
