<svg width="24" height="24" viewBox="0 0 24 24" fill="none" xmlns="http://www.w3.org/2000/svg">
<g clip-path="url(#clip0_1_4282)">
<path d="M6.63 11.61L12 7.28999L17.37 11.77C17.5473 11.9169 17.7698 11.9981 18 12C18.1469 12.0002 18.2921 11.9681 18.4252 11.9059C18.5582 11.8437 18.676 11.7529 18.77 11.64C18.8542 11.5389 18.9176 11.4223 18.9567 11.2967C18.9957 11.1711 19.0096 11.039 18.9975 10.908C18.9855 10.777 18.9477 10.6497 18.8863 10.5334C18.825 10.417 18.7413 10.3139 18.64 10.23L12.64 5.22999C12.4611 5.08291 12.2366 5.0025 12.005 5.0025C11.7734 5.0025 11.5489 5.08291 11.37 5.22999L5.37 10.06C5.26728 10.1425 5.18187 10.2445 5.1187 10.3602C5.05552 10.4758 5.01583 10.6028 5.00189 10.7338C4.98795 10.8648 5.00004 10.9973 5.03747 11.1237C5.07491 11.25 5.13694 11.3677 5.22 11.47C5.30324 11.572 5.4058 11.6565 5.52179 11.7188C5.63778 11.7811 5.76493 11.8198 5.89593 11.8328C6.02693 11.8458 6.15921 11.8328 6.28518 11.7946C6.41115 11.7564 6.52833 11.6936 6.63 11.61Z" fill="#111827"/>
<path d="M12.64 12.23C12.4611 12.0829 12.2366 12.0025 12.005 12.0025C11.7734 12.0025 11.5489 12.0829 11.37 12.23L5.37 17.06C5.26728 17.1425 5.18187 17.2445 5.1187 17.3602C5.05552 17.4758 5.01583 17.6028 5.00189 17.7338C4.98795 17.8648 5.00004 17.9973 5.03747 18.1237C5.07491 18.25 5.13694 18.3677 5.22 18.47C5.30253 18.5727 5.40454 18.6581 5.52017 18.7213C5.63581 18.7845 5.76279 18.8242 5.89382 18.8381C6.02485 18.852 6.15734 18.84 6.28368 18.8025C6.41002 18.7651 6.52772 18.7031 6.63 18.62L12 14.29L17.37 18.77C17.5473 18.9169 17.7698 18.9981 18 19C18.1469 19.0002 18.2921 18.9681 18.4252 18.9059C18.5582 18.8437 18.676 18.7529 18.77 18.64C18.8542 18.5389 18.9176 18.4223 18.9567 18.2967C18.9957 18.1711 19.0096 18.039 18.9975 17.908C18.9855 17.777 18.9477 17.6497 18.8863 17.5334C18.825 17.417 18.7413 17.3139 18.64 17.23L12.64 12.23Z" fill="#111827"/>
</g>
<defs>
<clipPath id="clip0_1_4282">
<rect width="24" height="24" fill="white"/>
</clipPath>
</defs>
</svg>
