<svg width="24" height="24" viewBox="0 0 24 24" fill="none" xmlns="http://www.w3.org/2000/svg">
<g clip-path="url(#clip0_1_4328)">
<path d="M15.83 6H4.17001C3.56062 6.03612 2.9903 6.31198 2.58369 6.76732C2.17707 7.22265 1.96723 7.82042 2.00001 8.43V15.57C1.96723 16.1796 2.17707 16.7774 2.58369 17.2327C2.9903 17.688 3.56062 17.9639 4.17001 18H15.83C16.4394 17.9639 17.0097 17.688 17.4163 17.2327C17.8229 16.7774 18.0328 16.1796 18 15.57V8.43C18.0328 7.82042 17.8229 7.22265 17.4163 6.76732C17.0097 6.31198 16.4394 6.03612 15.83 6ZM16 15.57C16.0068 15.6499 15.9949 15.7303 15.9654 15.8049C15.9359 15.8795 15.8896 15.9463 15.83 16H4.18001C4.11734 15.9483 4.0682 15.8822 4.03683 15.8073C4.00547 15.7323 3.99283 15.6509 4.00001 15.57V8.43C3.99402 8.35014 4.0062 8.26996 4.03564 8.19548C4.06509 8.12101 4.11103 8.05417 4.17001 8H15.82C15.8827 8.05166 15.9318 8.11782 15.9632 8.19274C15.9945 8.26766 16.0072 8.3491 16 8.43V15.57Z" fill="#111827"/>
<path d="M21 9C20.7348 9 20.4804 9.10536 20.2929 9.29289C20.1054 9.48043 20 9.73478 20 10V14C20 14.2652 20.1054 14.5196 20.2929 14.7071C20.4804 14.8946 20.7348 15 21 15C21.2652 15 21.5196 14.8946 21.7071 14.7071C21.8946 14.5196 22 14.2652 22 14V10C22 9.73478 21.8946 9.48043 21.7071 9.29289C21.5196 9.10536 21.2652 9 21 9Z" fill="#111827"/>
</g>
<defs>
<clipPath id="clip0_1_4328">
<rect width="24" height="24" fill="white"/>
</clipPath>
</defs>
</svg>
