<svg width="24" height="24" viewBox="0 0 24 24" fill="none" xmlns="http://www.w3.org/2000/svg">
<g clip-path="url(#clip0_1_4354)">
<path d="M13.63 12L17.63 8.21002C17.7543 8.09375 17.851 7.95112 17.913 7.7926C17.975 7.63408 18.0007 7.46369 17.9882 7.29393C17.9758 7.12418 17.9254 6.95937 17.841 6.81161C17.7565 6.66385 17.64 6.53688 17.5 6.44002L12.83 3.21002C12.6549 3.08741 12.4495 3.01513 12.2362 3.00102C12.0229 2.98692 11.8098 3.03153 11.62 3.13002C11.4362 3.22543 11.2816 3.36871 11.1724 3.54472C11.0633 3.72073 11.0037 3.92295 11 4.13002V10.33L7.81001 6.33002C7.63762 6.12315 7.39011 5.99323 7.12194 5.96885C6.85376 5.94447 6.58688 6.02763 6.38001 6.20002C6.17314 6.37241 6.04323 6.61992 6.01885 6.88809C5.99447 7.15627 6.07762 7.42315 6.25001 7.63002L9.72001 12L6.22001 16.43C6.0565 16.6372 5.98156 16.9007 6.01154 17.163C6.04151 17.4252 6.17396 17.665 6.38001 17.83C6.56233 17.9534 6.78027 18.0131 7.00001 18C7.15022 17.9993 7.29834 17.9648 7.43337 17.899C7.5684 17.8332 7.68688 17.7379 7.78001 17.62L11 13.56V19.85C11.0026 20.1559 11.126 20.4484 11.3433 20.6638C11.5605 20.8792 11.8541 21 12.16 21C12.3997 21.0009 12.6337 20.9276 12.83 20.79L17.47 17.61C17.6083 17.5123 17.7238 17.3856 17.8084 17.2389C17.893 17.0921 17.9447 16.9287 17.96 16.76C17.9732 16.5927 17.9496 16.4246 17.8908 16.2674C17.8321 16.1101 17.7396 15.9677 17.62 15.85L13.63 12ZM13 5.76002L15.5 7.49002L13 9.85002V5.76002ZM13 18.25V14.18L15.47 16.56L13 18.25Z" fill="#111827"/>
</g>
<defs>
<clipPath id="clip0_1_4354">
<rect width="24" height="24" fill="white"/>
</clipPath>
</defs>
</svg>
