<svg width="24" height="24" viewBox="0 0 24 24" fill="none" xmlns="http://www.w3.org/2000/svg">
<g clip-path="url(#clip0_1_4702)">
<path d="M17.81 13.39C19.5704 11.944 20.7116 9.8798 21 7.61997C21.0157 7.48865 21.0055 7.35551 20.9698 7.22815C20.9341 7.1008 20.8736 6.98172 20.7919 6.87772C20.7102 6.77372 20.6088 6.68683 20.4935 6.62201C20.3782 6.5572 20.2513 6.51573 20.12 6.49997C19.9887 6.48421 19.8555 6.49448 19.7282 6.53017C19.6008 6.56587 19.4817 6.6263 19.3777 6.70801C19.2737 6.78973 19.1868 6.89113 19.122 7.00642C19.0572 7.12172 19.0157 7.24865 19 7.37997C18.7609 9.06626 17.9211 10.6096 16.6351 11.7262C15.349 12.8427 13.7031 13.4576 12 13.4576C10.2968 13.4576 8.65092 12.8427 7.36486 11.7262C6.07881 10.6096 5.23904 9.06626 4.99997 7.37997C4.98421 7.24865 4.94274 7.12172 4.87793 7.00642C4.81312 6.89113 4.72623 6.78973 4.62223 6.70801C4.51822 6.6263 4.39915 6.56587 4.27179 6.53017C4.14443 6.49448 4.01129 6.48421 3.87997 6.49997C3.74865 6.51573 3.62172 6.5572 3.50642 6.62201C3.39113 6.68683 3.28973 6.77372 3.20801 6.87772C3.1263 6.98172 3.06587 7.1008 3.03017 7.22815C2.99447 7.35551 2.98421 7.48865 2.99997 7.61997C3.28581 9.87831 4.4233 11.9422 6.17997 13.39L3.87997 15.71C3.71615 15.9013 3.63054 16.1474 3.64026 16.399C3.64998 16.6507 3.75431 16.8894 3.93241 17.0675C4.1105 17.2456 4.34924 17.35 4.60092 17.3597C4.8526 17.3694 5.09867 17.2838 5.28997 17.12L7.89997 14.52C8.86978 15.0101 9.91983 15.3217 11 15.44V19C11 19.2652 11.1053 19.5195 11.2929 19.7071C11.4804 19.8946 11.7348 20 12 20C12.2652 20 12.5195 19.8946 12.7071 19.7071C12.8946 19.5195 13 19.2652 13 19V15.44C14.0801 15.3217 15.1302 15.0101 16.1 14.52L18.71 17.12C18.9013 17.2838 19.1473 17.3694 19.399 17.3597C19.6507 17.35 19.8894 17.2456 20.0675 17.0675C20.2456 16.8894 20.35 16.6507 20.3597 16.399C20.3694 16.1474 20.2838 15.9013 20.12 15.71L17.81 13.39Z" fill="#111827"/>
</g>
<defs>
<clipPath id="clip0_1_4702">
<rect width="24" height="24" fill="white"/>
</clipPath>
</defs>
</svg>
