<svg width="24" height="24" viewBox="0 0 24 24" fill="none" xmlns="http://www.w3.org/2000/svg">
<g clip-path="url(#clip0_1_4726)">
<path d="M13 22H9C8.73478 22 8.48043 21.8947 8.29289 21.7071C8.10536 21.5196 8 21.2652 8 21V14.8H6C5.73478 14.8 5.48043 14.6947 5.29289 14.5071C5.10536 14.3196 5 14.0652 5 13.8V10.2C5 9.9348 5.10536 9.68045 5.29289 9.49291C5.48043 9.30537 5.73478 9.20002 6 9.20002H8V7.50002C8.0701 5.97637 8.74062 4.54246 9.86497 3.5118C10.9893 2.48115 12.476 1.93761 14 2.00002H17C17.2652 2.00002 17.5196 2.10537 17.7071 2.29291C17.8946 2.48045 18 2.7348 18 3.00002V6.60002C18 6.86523 17.8946 7.11959 17.7071 7.30712C17.5196 7.49466 17.2652 7.60002 17 7.60002H14V9.20002H17C17.1544 9.19885 17.307 9.23345 17.4458 9.30111C17.5846 9.36877 17.7058 9.46766 17.8 9.59002C17.8931 9.71421 17.9561 9.85839 17.9839 10.0111C18.0116 10.1639 18.0035 10.321 17.96 10.47L16.96 14.07C16.8995 14.2863 16.768 14.476 16.5866 14.6084C16.4052 14.7408 16.1844 14.8083 15.96 14.8H14V21C14 21.2652 13.8946 21.5196 13.7071 21.7071C13.5196 21.8947 13.2652 22 13 22ZM10 20H12V13.8C12 13.5348 12.1054 13.2804 12.2929 13.0929C12.4804 12.9054 12.7348 12.8 13 12.8H15.24L15.68 11.2H13C12.7348 11.2 12.4804 11.0947 12.2929 10.9071C12.1054 10.7196 12 10.4652 12 10.2V7.50002C12.0257 6.9871 12.2477 6.50373 12.62 6.15002C12.9923 5.79631 13.4864 5.59937 14 5.60002H16V4.00002H14C13.0068 3.93951 12.0298 4.27305 11.281 4.92828C10.5321 5.58351 10.0719 6.50758 10 7.50002V10.2C10 10.4652 9.89464 10.7196 9.70711 10.9071C9.51957 11.0947 9.26522 11.2 9 11.2H7V12.8H9C9.26522 12.8 9.51957 12.9054 9.70711 13.0929C9.89464 13.2804 10 13.5348 10 13.8V20Z" fill="#111827"/>
</g>
<defs>
<clipPath id="clip0_1_4726">
<rect width="24" height="24" fill="white"/>
</clipPath>
</defs>
</svg>
