<svg width="24" height="24" viewBox="0 0 24 24" fill="none" xmlns="http://www.w3.org/2000/svg">
<g clip-path="url(#clip0_1_4760)">
<path d="M20.71 19.29L4.71 3.29C4.61676 3.19676 4.50607 3.1228 4.38425 3.07234C4.26243 3.02188 4.13186 2.99591 4 2.99591C3.86814 2.99591 3.73758 3.02188 3.61575 3.07234C3.49393 3.1228 3.38324 3.19676 3.29 3.29C3.1017 3.47831 2.99591 3.7337 2.99591 4C2.99591 4.2663 3.1017 4.5217 3.29 4.71L19.29 20.71C19.383 20.8037 19.4936 20.8781 19.6154 20.9289C19.7373 20.9797 19.868 21.0058 20 21.0058C20.132 21.0058 20.2627 20.9797 20.3846 20.9289C20.5064 20.8781 20.617 20.8037 20.71 20.71C20.8037 20.617 20.8781 20.5064 20.9289 20.3846C20.9797 20.2627 21.0058 20.132 21.0058 20C21.0058 19.868 20.9797 19.7373 20.9289 19.6154C20.8781 19.4936 20.8037 19.383 20.71 19.29Z" fill="#111827"/>
<path d="M12.54 18.06L12.81 15.64L10 12.8H6.87001L8.11001 10.94L6.67001 9.5L4.17001 13.24C4.06828 13.3905 4.00947 13.5659 3.99989 13.7473C3.99032 13.9287 4.03035 14.1093 4.11568 14.2697C4.20101 14.4301 4.32842 14.5642 4.48423 14.6576C4.64003 14.7511 4.81834 14.8003 5.00001 14.8H10.89L10.12 21.89C10.0952 22.1125 10.1457 22.3369 10.2636 22.5273C10.3814 22.7177 10.5598 22.863 10.77 22.94C10.879 22.9796 10.9941 22.9999 11.11 23C11.2738 23.0002 11.4352 22.9603 11.5799 22.8835C11.7246 22.8068 11.8483 22.6957 11.94 22.56L15.06 17.89L13.62 16.45L12.54 18.06Z" fill="#111827"/>
<path d="M11.46 5.94002L11.19 8.36002L14 11.2H17.1L15.86 13.06L17.3 14.5L19.8 10.76C19.9004 10.6116 19.9591 10.439 19.9699 10.2601C19.9808 10.0812 19.9434 9.90275 19.8616 9.74331C19.7798 9.58387 19.6567 9.44932 19.5052 9.35375C19.3536 9.25817 19.1791 9.20508 19 9.20002H13.11L13.88 2.11002C13.8934 1.89563 13.8375 1.68262 13.7204 1.50251C13.6033 1.32241 13.4314 1.18479 13.23 1.11002C13.0205 1.03393 12.7916 1.02999 12.5797 1.09883C12.3677 1.16768 12.1848 1.30536 12.06 1.49002L8.94 6.11002L10.38 7.55002L11.46 5.94002Z" fill="#111827"/>
</g>
<defs>
<clipPath id="clip0_1_4760">
<rect width="24" height="24" fill="white"/>
</clipPath>
</defs>
</svg>
