<svg width="24" height="24" viewBox="0 0 24 24" fill="none" xmlns="http://www.w3.org/2000/svg">
<g clip-path="url(#clip0_1_5124)">
<path d="M21 3.99996C20.9896 3.9081 20.9695 3.81759 20.94 3.72996V3.63996C20.892 3.52867 20.8243 3.42702 20.74 3.33996C20.6551 3.26023 20.557 3.19593 20.45 3.14996H20.36C20.2678 3.07957 20.1624 3.02855 20.05 2.99996H20C19.9006 2.98488 19.7994 2.98488 19.7 2.99996L1.69999 8.99996C1.49992 9.06572 1.32572 9.19296 1.20222 9.36355C1.07873 9.53414 1.01224 9.73936 1.01224 9.94996C1.01224 10.1606 1.07873 10.3658 1.20222 10.5364C1.32572 10.707 1.49992 10.8342 1.69999 10.9L10.23 13.74L13.07 22.27C13.1357 22.47 13.263 22.6442 13.4336 22.7677C13.6042 22.8912 13.8094 22.9577 14.02 22.9577C14.2306 22.9577 14.4358 22.8912 14.6064 22.7677C14.777 22.6442 14.9042 22.47 14.97 22.27L20.97 4.26996C20.9922 4.18175 21.0023 4.09091 21 3.99996ZM16.3 6.28996L10.73 11.86L5.15999 9.99996L16.3 6.28996ZM14 18.84L12.14 13.27L17.71 7.69996L14 18.84Z" fill="#111827"/>
</g>
<defs>
<clipPath id="clip0_1_5124">
<rect width="24" height="24" fill="white"/>
</clipPath>
</defs>
</svg>
