<svg width="24" height="24" viewBox="0 0 24 24" fill="none" xmlns="http://www.w3.org/2000/svg">
<g clip-path="url(#clip0_1_5310)">
<path d="M18.45 6.19995C18.0943 6.03191 17.6985 5.9672 17.3077 6.01316C16.917 6.05913 16.547 6.21394 16.24 6.45995L11.5 10.3799V7.78995C11.4961 7.45209 11.395 7.12251 11.2088 6.84057C11.0226 6.55862 10.7592 6.33623 10.45 6.19995C10.0943 6.03191 9.69847 5.9672 9.30773 6.01316C8.917 6.05913 8.54703 6.21394 8.24 6.45995L3.14 10.6699C2.94001 10.8292 2.77849 11.0314 2.66748 11.2617C2.55647 11.492 2.49882 11.7443 2.49882 11.9999C2.49882 12.2556 2.55647 12.5079 2.66748 12.7382C2.77849 12.9685 2.94001 13.1707 3.14 13.3299L8.24 17.5399C8.60762 17.8381 9.06669 18.0005 9.54 17.9999C9.85403 17.9981 10.1641 17.9299 10.45 17.7999C10.7592 17.6637 11.0226 17.4413 11.2088 17.1593C11.395 16.8774 11.4961 16.5478 11.5 16.2099V13.6199L16.24 17.5399C16.6076 17.8381 17.0667 18.0005 17.54 17.9999C17.854 17.9981 18.1641 17.9299 18.45 17.7999C18.7592 17.6637 19.0226 17.4413 19.2088 17.1593C19.395 16.8774 19.4961 16.5478 19.5 16.2099V7.78995C19.4961 7.45209 19.395 7.12251 19.2088 6.84057C19.0226 6.55862 18.7592 6.33623 18.45 6.19995ZM9.5 15.9999L4.68 11.9999L9.5 8.08995V15.9999ZM17.5 15.9999L12.68 11.9999L17.5 8.08995V15.9999Z" fill="#111827"/>
</g>
<defs>
<clipPath id="clip0_1_5310">
<rect width="24" height="24" fill="white"/>
</clipPath>
</defs>
</svg>
