<svg width="24" height="24" viewBox="0 0 24 24" fill="none" xmlns="http://www.w3.org/2000/svg">
<g clip-path="url(#clip0_1_5568)">
<path d="M17 15.5899L15 13.5899L8.41 6.99994L6.41 4.99994L4.71 3.28994C4.61676 3.1967 4.50607 3.12274 4.38425 3.07228C4.26243 3.02182 4.13186 2.99585 4 2.99585C3.86814 2.99585 3.73758 3.02182 3.61575 3.07228C3.49393 3.12274 3.38324 3.1967 3.29 3.28994C3.1017 3.47825 2.99591 3.73364 2.99591 3.99994C2.99591 4.26624 3.1017 4.52164 3.29 4.70994L3.83 5.23994L5.59 6.99994L14.93 16.3399L16.39 17.7999L19.29 20.7099C19.383 20.8037 19.4936 20.8781 19.6154 20.9288C19.7373 20.9796 19.868 21.0057 20 21.0057C20.132 21.0057 20.2627 20.9796 20.3846 20.9288C20.5064 20.8781 20.617 20.8037 20.71 20.7099C20.8037 20.617 20.8781 20.5064 20.9289 20.3845C20.9797 20.2627 21.0058 20.132 21.0058 19.9999C21.0058 19.8679 20.9797 19.7372 20.9289 19.6154C20.8781 19.4935 20.8037 19.3829 20.71 19.2899L17 15.5899Z" fill="#111827"/>
<path d="M14 17H5C4.73478 17 4.48043 16.8947 4.29289 16.7072C4.10536 16.5196 4 16.2653 4 16V8.00005C4.00306 7.8482 4.04067 7.69903 4.10998 7.56388C4.17929 7.42873 4.27847 7.31115 4.4 7.22005L3 5.80005C2.68988 6.07737 2.44084 6.41616 2.26868 6.7949C2.09653 7.17364 2.00503 7.58405 2 8.00005V16C2 16.7957 2.31607 17.5588 2.87868 18.1214C3.44129 18.684 4.20435 19 5 19H14C14.5921 19.0011 15.1706 18.8233 15.66 18.49L14.14 17C14.0935 17.0047 14.0465 17.0047 14 17Z" fill="#111827"/>
<path d="M21 7.15C20.6962 7.0132 20.3588 6.9687 20.0299 7.02204C19.701 7.07537 19.395 7.22419 19.15 7.45L17 9.45V8C17 7.20435 16.6839 6.44129 16.1213 5.87868C15.5587 5.31607 14.7956 5 14 5H7.82999L9.82999 7H14C14.2652 7 14.5196 7.10536 14.7071 7.29289C14.8946 7.48043 15 7.73478 15 8V12.17L19.72 16.89C19.9119 16.9619 20.115 16.9992 20.32 17C20.558 16.9994 20.7932 16.9483 21.01 16.85C21.3049 16.7307 21.5576 16.5262 21.7357 16.2625C21.9139 15.9989 22.0093 15.6882 22.01 15.37V8.63C22.0085 8.31069 21.9116 7.99911 21.7316 7.73536C21.5516 7.47161 21.2968 7.26774 21 7.15ZM20 14.6L17.19 12L20 9.4V14.6Z" fill="#111827"/>
</g>
<defs>
<clipPath id="clip0_1_5568">
<rect width="24" height="24" fill="white"/>
</clipPath>
</defs>
</svg>
