<svg width="24" height="24" viewBox="0 0 24 24" fill="none" xmlns="http://www.w3.org/2000/svg">
<g clip-path="url(#clip0_1_5827)">
<path d="M13.63 12L17.6299 8.21002C17.7543 8.09375 17.851 7.95112 17.9129 7.7926C17.9749 7.63408 18.0006 7.46369 17.9882 7.29393C17.9757 7.12418 17.9254 6.95937 17.8409 6.81161C17.7564 6.66385 17.6399 6.53688 17.5 6.44002L12.8299 3.21002C12.6548 3.08741 12.4494 3.01513 12.2361 3.00102C12.0228 2.98692 11.8097 3.03153 11.6199 3.13002C11.4361 3.22543 11.2815 3.36871 11.1724 3.54472C11.0632 3.72073 11.0037 3.92295 10.9999 4.13002V10.33L7.80995 6.33002C7.63756 6.12315 7.39005 5.99323 7.12187 5.96885C6.8537 5.94447 6.58682 6.02763 6.37995 6.20002C6.17308 6.37241 6.04317 6.61992 6.01879 6.88809C5.99441 7.15627 6.07756 7.42315 6.24995 7.63002L9.71995 12L6.21995 16.43C6.05644 16.6372 5.9815 16.9007 6.01148 17.163C6.04145 17.4252 6.1739 17.665 6.37995 17.83C6.56227 17.9534 6.78021 18.0131 6.99995 18C7.15016 17.9993 7.29827 17.9648 7.43331 17.899C7.56834 17.8332 7.68682 17.7379 7.77995 17.62L10.9999 13.56V19.85C11.0026 20.1559 11.126 20.4484 11.3432 20.6638C11.5605 20.8792 11.854 21 12.1599 21C12.3996 21.0009 12.6337 20.9276 12.8299 20.79L17.4699 17.61C17.6083 17.5123 17.7238 17.3856 17.8084 17.2389C17.893 17.0921 17.9447 16.9287 17.9599 16.76C17.9731 16.5927 17.9495 16.4246 17.8908 16.2674C17.832 16.1101 17.7396 15.9677 17.62 15.85L13.63 12ZM12.9999 5.76002L15.5 7.49002L12.9999 9.85002V5.76002ZM12.9999 18.25V14.18L15.47 16.56L12.9999 18.25Z" fill="#111827"/>
</g>
<defs>
<clipPath id="clip0_1_5827">
<rect width="24" height="24" fill="white"/>
</clipPath>
</defs>
</svg>
