<svg width="24" height="24" viewBox="0 0 24 24" fill="none" xmlns="http://www.w3.org/2000/svg">
<g clip-path="url(#clip0_1_6014)">
<path d="M19.54 5.08002C18.5374 4.08445 17.346 3.29917 16.0358 2.77026C14.7255 2.24136 13.3229 1.97949 11.91 2.00002C9.25788 1.99339 6.7117 3.0406 4.83165 4.91128C2.9516 6.78195 1.89167 9.32286 1.88504 11.975C1.87841 14.6272 2.92562 17.1734 4.7963 19.0534C6.66697 20.9335 9.20788 21.9934 11.86 22C12.4315 22.0097 12.9901 21.8294 13.448 21.4873C13.9059 21.1453 14.2373 20.6608 14.39 20.11C14.4874 19.7123 14.4864 19.2968 14.3871 18.8995C14.2878 18.5022 14.0932 18.1351 13.82 17.83C13.7569 17.7582 13.7157 17.6697 13.7013 17.5751C13.6869 17.4805 13.7 17.3838 13.739 17.2964C13.7779 17.209 13.8411 17.1347 13.9211 17.0821C14.001 17.0296 14.0944 17.0011 14.19 17H15.84C17.393 17.0073 18.8912 16.4268 20.0338 15.375C21.1764 14.3233 21.8789 12.8783 22 11.33C22.0372 10.1756 21.8382 9.02581 21.4152 7.95108C20.9922 6.87635 20.3541 5.89935 19.54 5.08002ZM6.84004 14.74C6.59451 14.9069 6.30499 14.9971 6.00813 14.9994C5.71128 15.0016 5.42044 14.9157 5.17243 14.7525C4.92443 14.5894 4.73042 14.3563 4.61497 14.0828C4.49952 13.8093 4.46782 13.5077 4.52388 13.2161C4.57995 12.9246 4.72125 12.6563 4.92991 12.4451C5.13856 12.234 5.40518 12.0894 5.69602 12.0299C5.98685 11.9704 6.28881 11.9984 6.56367 12.1106C6.83852 12.2228 7.07392 12.414 7.24004 12.66C7.35136 12.8225 7.42935 13.0055 7.46951 13.1983C7.50967 13.3912 7.51119 13.59 7.474 13.7835C7.4368 13.9769 7.36162 14.161 7.2528 14.3252C7.14398 14.4894 7.00369 14.6304 6.84004 14.74ZM8.30004 9.25002C8.15776 9.51354 7.93985 9.72844 7.67438 9.86704C7.40891 10.0056 7.10803 10.0616 6.81047 10.0277C6.51292 9.99387 6.23232 9.8717 6.00479 9.67697C5.77727 9.48224 5.61325 9.22386 5.53384 8.9351C5.45443 8.64635 5.46327 8.34043 5.55923 8.05674C5.65519 7.77305 5.83387 7.52458 6.07226 7.34332C6.31065 7.16206 6.59784 7.05631 6.89686 7.03968C7.19587 7.02305 7.49302 7.09631 7.75004 7.25002C8.08168 7.44836 8.32399 7.76704 8.42645 8.13963C8.52892 8.51223 8.48363 8.90999 8.30004 9.25002ZM11 7.00002C10.7034 7.00002 10.4134 6.91205 10.1667 6.74723C9.92001 6.5824 9.72775 6.34814 9.61422 6.07405C9.50069 5.79996 9.47098 5.49836 9.52886 5.20739C9.58674 4.91641 9.7296 4.64914 9.93938 4.43936C10.1492 4.22958 10.4164 4.08672 10.7074 4.02884C10.9984 3.97097 11.3 4.00067 11.5741 4.1142C11.8482 4.22773 12.0824 4.41999 12.2472 4.66667C12.4121 4.91334 12.5 5.20335 12.5 5.50002C12.5 5.89785 12.342 6.27938 12.0607 6.56068C11.7794 6.84199 11.3979 7.00002 11 7.00002ZM16.75 7.80002C16.493 7.95373 16.1959 8.02699 15.8969 8.01036C15.5978 7.99373 15.3107 7.88798 15.0723 7.70672C14.8339 7.52546 14.6552 7.27699 14.5592 6.9933C14.4633 6.70961 14.4544 6.4037 14.5338 6.11494C14.6132 5.82618 14.7773 5.56781 15.0048 5.37308C15.2323 5.17835 15.5129 5.05618 15.8105 5.0223C16.108 4.98843 16.4089 5.0444 16.6744 5.183C16.9399 5.32161 17.1578 5.5365 17.3 5.80002C17.4836 6.14005 17.5289 6.53782 17.4265 6.91041C17.324 7.283 17.0817 7.60168 16.75 7.80002Z" fill="#111827"/>
</g>
<defs>
<clipPath id="clip0_1_6014">
<rect width="24" height="24" fill="white"/>
</clipPath>
</defs>
</svg>
