<svg width="24" height="24" viewBox="0 0 24 24" fill="none" xmlns="http://www.w3.org/2000/svg">
<g clip-path="url(#clip0_1_6128)">
<path d="M19 16.14C19.5268 14.7659 19.6505 13.27 19.3564 11.8281C19.0624 10.3861 18.3628 9.05807 17.34 8.00002L12.78 3.31002C12.6882 3.21372 12.5781 3.1367 12.4562 3.08347C12.3343 3.03024 12.203 3.00187 12.07 3.00002C11.936 2.99923 11.8032 3.02539 11.6795 3.07692C11.5558 3.12846 11.4438 3.20433 11.35 3.30002L8.73999 5.92002L19 16.14Z" fill="#111827"/>
<path d="M6.00001 8.82001C4.9284 10.2831 4.40534 12.0764 4.52234 13.8862C4.63933 15.696 5.38893 17.4071 6.64001 18.72C7.32477 19.4314 8.14429 19.9994 9.05079 20.3908C9.9573 20.7823 10.9327 20.9894 11.92 21C13.6045 21.0149 15.2428 20.45 16.56 19.4L6.00001 8.82001Z" fill="#111827"/>
<path d="M20.71 19.29L4.71 3.29C4.61676 3.19676 4.50607 3.1228 4.38425 3.07234C4.26243 3.02188 4.13186 2.99591 4 2.99591C3.86814 2.99591 3.73758 3.02188 3.61575 3.07234C3.49393 3.1228 3.38324 3.19676 3.29 3.29C3.1017 3.47831 2.99591 3.7337 2.99591 4C2.99591 4.2663 3.1017 4.5217 3.29 4.71L19.29 20.71C19.383 20.8037 19.4936 20.8781 19.6154 20.9289C19.7373 20.9797 19.868 21.0058 20 21.0058C20.132 21.0058 20.2627 20.9797 20.3846 20.9289C20.5064 20.8781 20.617 20.8037 20.71 20.71C20.8037 20.617 20.8781 20.5064 20.9289 20.3846C20.9797 20.2627 21.0058 20.132 21.0058 20C21.0058 19.868 20.9797 19.7373 20.9289 19.6154C20.8781 19.4936 20.8037 19.383 20.71 19.29Z" fill="#111827"/>
</g>
<defs>
<clipPath id="clip0_1_6128">
<rect width="24" height="24" fill="white"/>
</clipPath>
</defs>
</svg>
