<svg width="24" height="24" viewBox="0 0 24 24" fill="none" xmlns="http://www.w3.org/2000/svg">
<g clip-path="url(#clip0_1_6294)">
<path d="M17.5 14C17.2072 15.0184 16.627 15.9308 15.8289 16.6279C15.0308 17.3249 14.0486 17.777 13 17.93C12.18 18.049 11.3445 18.001 10.5435 17.789C9.74251 17.577 8.99262 17.2054 8.33885 16.6964C7.68508 16.1874 7.14091 15.5515 6.73899 14.827C6.33708 14.1024 6.08571 13.3041 5.99999 12.48C5.93359 11.6527 6.03956 10.8205 6.31121 10.0363C6.58286 9.25196 7.01428 8.53256 7.57819 7.92353C8.14211 7.31451 8.82624 6.8291 9.58735 6.49801C10.3485 6.16692 11.17 5.99735 12 6.00001C12.7777 6.0011 13.5482 6.15044 14.27 6.44001C14.3837 6.49104 14.5123 6.49779 14.6307 6.45895C14.749 6.4201 14.8487 6.33846 14.91 6.23001L16.35 3.58001C16.381 3.51897 16.3996 3.45241 16.4048 3.38416C16.41 3.3159 16.4017 3.24728 16.3804 3.18225C16.359 3.11721 16.325 3.05703 16.2803 3.00517C16.2356 2.9533 16.1812 2.91077 16.12 2.88001C14.5737 2.17992 12.8747 1.88495 11.1829 2.02288C9.49113 2.16081 7.86231 2.72709 6.44984 3.6684C5.03738 4.60971 3.88776 5.89506 3.10927 7.40339C2.33078 8.91172 1.94904 10.5934 1.99999 12.29C2.09854 14.8099 3.13437 17.2022 4.90457 18.9983C6.67477 20.7944 9.05179 21.8649 11.57 22C14.2079 22.117 16.785 21.1859 18.739 19.4099C20.693 17.6339 21.8653 15.1571 22 12.52V10.52C21.9974 10.3882 21.9439 10.2625 21.8507 10.1693C21.7575 10.0761 21.6318 10.0226 21.5 10.02H12.5C12.3674 10.02 12.2402 10.0727 12.1464 10.1665C12.0527 10.2602 12 10.3874 12 10.52V13.52C12 13.6526 12.0527 13.7798 12.1464 13.8736C12.2402 13.9673 12.3674 14.02 12.5 14.02H17.5" fill="#111827"/>
</g>
<defs>
<clipPath id="clip0_1_6294">
<rect width="24" height="24" fill="white"/>
</clipPath>
</defs>
</svg>
