<svg width="24" height="24" viewBox="0 0 24 24" fill="none" xmlns="http://www.w3.org/2000/svg">
<g clip-path="url(#clip0_1_6547)">
<path d="M20 20C19.8034 20.0023 19.611 19.9428 19.45 19.83L12.55 15.27C12.3867 15.1625 12.1955 15.1052 12 15.1052C11.8045 15.1052 11.6133 15.1625 11.45 15.27L4.54997 19.83C4.36636 19.9484 4.14904 20.0033 3.93124 19.9865C3.71345 19.9697 3.50715 19.882 3.34388 19.7369C3.18061 19.5918 3.06935 19.3972 3.02711 19.1828C2.98487 18.9685 3.01398 18.7462 3.10997 18.55L11.11 2.55002C11.1939 2.38622 11.3214 2.24875 11.4784 2.15276C11.6355 2.05677 11.8159 2.00598 12 2.00598C12.184 2.00598 12.3645 2.05677 12.5215 2.15276C12.6786 2.24875 12.8061 2.38622 12.89 2.55002L20.89 18.55C20.9897 18.7473 21.0212 18.9721 20.9796 19.1892C20.9379 19.4063 20.8256 19.6036 20.66 19.75C20.4777 19.9108 20.243 19.9997 20 20Z" fill="#111827"/>
</g>
<defs>
<clipPath id="clip0_1_6547">
<rect width="24" height="24" fill="white"/>
</clipPath>
</defs>
</svg>
