<svg width="24" height="24" viewBox="0 0 24 24" fill="none" xmlns="http://www.w3.org/2000/svg">
<g clip-path="url(#clip0_1_6571)">
<path d="M20 13.1801H17.3L15.44 15.1801L11.88 19.0001L10.47 20.5201L10 21.0001H20C20.2652 21.0001 20.5196 20.8947 20.7071 20.7072C20.8946 20.5196 21 20.2653 21 20.0001V14.1801C21 13.9148 20.8946 13.6605 20.7071 13.4729C20.5196 13.2854 20.2652 13.1801 20 13.1801Z" fill="#111827"/>
<path d="M18.19 9.30006L14.05 5.44006C13.958 5.34725 13.8467 5.27585 13.724 5.23091C13.6013 5.18597 13.4702 5.16861 13.34 5.18006C13.2087 5.18322 13.0793 5.21223 12.9592 5.26542C12.8391 5.31861 12.7306 5.39494 12.64 5.49006L11.82 6.38006V17.0901C11.8104 17.281 11.7904 17.4713 11.76 17.6601L18.24 10.7101C18.4198 10.5162 18.5154 10.259 18.5061 9.99473C18.4967 9.7305 18.3831 9.48073 18.19 9.30006Z" fill="#111827"/>
<path d="M10.82 4C10.82 3.73478 10.7146 3.48043 10.5271 3.29289C10.3396 3.10536 10.0852 3 9.82 3H4C3.73478 3 3.48043 3.10536 3.29289 3.29289C3.10536 3.48043 3 3.73478 3 4V17.09C3 18.127 3.41195 19.1215 4.14521 19.8548C4.87848 20.5881 5.873 21 6.91 21C7.947 21 8.94152 20.5881 9.67479 19.8548C10.4081 19.1215 10.82 18.127 10.82 17.09V4ZM8.82 17.09C8.82 17.5966 8.61877 18.0824 8.26057 18.4406C7.90238 18.7988 7.41656 19 6.91 19C6.40344 19 5.91762 18.7988 5.55943 18.4406C5.20123 18.0824 5 17.5966 5 17.09V15H8.82V17.09ZM8.82 13H5V10H8.82V13ZM8.82 8H5V5H8.82V8Z" fill="#111827"/>
</g>
<defs>
<clipPath id="clip0_1_6571">
<rect width="24" height="24" fill="white"/>
</clipPath>
</defs>
</svg>
