<svg width="24" height="24" viewBox="0 0 24 24" fill="none" xmlns="http://www.w3.org/2000/svg">
<g clip-path="url(#clip0_1_6609)">
<path d="M20.47 7.49996L21.2 6.76996C21.3949 6.57502 21.5044 6.31063 21.5044 6.03496C21.5044 5.75928 21.3949 5.49489 21.2 5.29996C21.005 5.10502 20.7406 4.99551 20.465 4.99551C20.1893 4.99551 19.9249 5.10502 19.73 5.29996L19 5.99996L18.27 5.26996C18.0711 5.07502 17.8029 4.96709 17.5244 4.9699C17.2459 4.97272 16.9799 5.08604 16.785 5.28496C16.59 5.48387 16.4821 5.75207 16.4849 6.03056C16.4877 6.30905 16.6011 6.57502 16.8 6.76996L17.53 7.49996L16.8 8.22996C16.605 8.42489 16.4955 8.68928 16.4955 8.96496C16.4955 9.24063 16.605 9.50502 16.8 9.69996C16.9949 9.89489 17.2593 10.0044 17.535 10.0044C17.8106 10.0044 18.075 9.89489 18.27 9.69996L19 8.99996L19.73 9.72996C19.9289 9.92489 20.1971 10.0328 20.4756 10.03C20.7541 10.0272 21.02 9.91387 21.215 9.71496C21.4099 9.51604 21.5178 9.24784 21.515 8.96935C21.5122 8.69086 21.3989 8.42489 21.2 8.22996L20.47 7.49996Z" fill="#111827"/>
<path d="M10 11C10.7911 11 11.5645 10.7654 12.2223 10.3259C12.8801 9.88635 13.3928 9.26164 13.6955 8.53074C13.9983 7.79983 14.0775 6.99556 13.9231 6.21964C13.7688 5.44372 13.3878 4.73098 12.8284 4.17157C12.269 3.61216 11.5563 3.2312 10.7804 3.07686C10.0044 2.92252 9.20017 3.00173 8.46927 3.30448C7.73836 3.60723 7.11365 4.11992 6.67412 4.77772C6.2346 5.43552 6 6.20888 6 7C6 8.06087 6.42143 9.07828 7.17157 9.82843C7.92172 10.5786 8.93913 11 10 11Z" fill="#111827"/>
<path d="M16 21C16.2652 21 16.5196 20.8946 16.7071 20.7071C16.8946 20.5196 17 20.2652 17 20C17 18.1435 16.2625 16.363 14.9497 15.0503C13.637 13.7375 11.8565 13 10 13C8.14348 13 6.36301 13.7375 5.05025 15.0503C3.7375 16.363 3 18.1435 3 20C3 20.2652 3.10536 20.5196 3.29289 20.7071C3.48043 20.8946 3.73478 21 4 21H16Z" fill="#111827"/>
</g>
<defs>
<clipPath id="clip0_1_6609">
<rect width="24" height="24" fill="white"/>
</clipPath>
</defs>
</svg>
