<svg width="24" height="24" viewBox="0 0 24 24" fill="none" xmlns="http://www.w3.org/2000/svg">
<g clip-path="url(#clip0_1_6768)">
<path d="M20.86 10.6699L15.76 6.45995C15.453 6.21394 15.083 6.05913 14.6923 6.01316C14.3015 5.9672 13.9057 6.03191 13.55 6.19995C13.2408 6.33623 12.9774 6.55862 12.7912 6.84057C12.605 7.12251 12.5039 7.45209 12.5 7.78995V10.3799L7.75999 6.45995C7.45296 6.21394 7.08299 6.05913 6.69226 6.01316C6.30152 5.9672 5.90573 6.03191 5.54999 6.19995C5.25017 6.34349 4.99712 6.56901 4.82015 6.85039C4.64317 7.13178 4.54951 7.45753 4.54999 7.78995V16.2099C4.54951 16.5424 4.64317 16.8681 4.82015 17.1495C4.99712 17.4309 5.25017 17.6564 5.54999 17.7999C5.83586 17.9299 6.14596 17.9981 6.45999 17.9999C6.9333 18.0005 7.39237 17.8381 7.75999 17.5399L12.5 13.6199V16.2099C12.5039 16.5478 12.605 16.8774 12.7912 17.1593C12.9774 17.4413 13.2408 17.6637 13.55 17.7999C13.8359 17.9299 14.146 17.9981 14.46 17.9999C14.9333 18.0005 15.3924 17.8381 15.76 17.5399L20.86 13.3299C21.06 13.1707 21.2215 12.9685 21.3325 12.7382C21.4435 12.5079 21.5012 12.2556 21.5012 11.9999C21.5012 11.7443 21.4435 11.492 21.3325 11.2617C21.2215 11.0314 21.06 10.8292 20.86 10.6699Z" fill="#111827"/>
</g>
<defs>
<clipPath id="clip0_1_6768">
<rect width="24" height="24" fill="white"/>
</clipPath>
</defs>
</svg>
