<svg width="24" height="24" viewBox="0 0 24 24" fill="none" xmlns="http://www.w3.org/2000/svg">
<g clip-path="url(#clip0_1_6825)">
<path d="M12 21.85C11.6506 21.8555 11.3058 21.7693 11 21.6L10.7 21.43C8.36329 20.108 6.41928 18.1895 5.06649 15.8704C3.71371 13.5514 3.00061 10.9148 3.00002 8.23003V8.09003C2.99685 7.73592 3.08776 7.38731 3.26345 7.07985C3.43915 6.77238 3.69333 6.51708 4.00002 6.34003L11 2.40003C11.3041 2.22449 11.6489 2.13208 12 2.13208C12.3511 2.13208 12.696 2.22449 13 2.40003L20 6.34003C20.3067 6.51708 20.5609 6.77238 20.7366 7.07985C20.9123 7.38731 21.0032 7.73592 21 8.09003V8.23003C20.9974 10.9168 20.2813 13.5547 18.9249 15.8739C17.5685 18.1932 15.6205 20.1106 13.28 21.43L12.98 21.6C12.6802 21.7659 12.3427 21.852 12 21.85Z" fill="#111827"/>
</g>
<defs>
<clipPath id="clip0_1_6825">
<rect width="24" height="24" fill="white"/>
</clipPath>
</defs>
</svg>
