<svg width="24" height="24" viewBox="0 0 24 24" fill="none" xmlns="http://www.w3.org/2000/svg">
<g clip-path="url(#clip0_1_7017)">
<path d="M14.22 17.05L4.88 7.71005L3.12 6.00005L3 5.80005C2.68988 6.07737 2.44084 6.41616 2.26868 6.7949C2.09653 7.17364 2.00503 7.58405 2 8.00005V16C2 16.7957 2.31607 17.5588 2.87868 18.1214C3.44129 18.684 4.20435 19 5 19H14C14.5921 19.0011 15.1706 18.8233 15.66 18.49L14.22 17.05Z" fill="#111827"/>
<path d="M21 7.15C20.6961 7.0132 20.3588 6.9687 20.0299 7.02204C19.701 7.07537 19.395 7.22419 19.15 7.45L17 9.45V8C17 7.20435 16.6839 6.44129 16.1213 5.87868C15.5587 5.31607 14.7956 5 14 5H7.82996L9.11996 6.29L15.71 12.88L17.71 14.88L19.71 16.88C19.9019 16.9519 20.105 16.9892 20.31 16.99C20.548 16.9894 20.7832 16.9383 21 16.84C21.2949 16.7207 21.5476 16.5162 21.7257 16.2525C21.9038 15.9889 21.9993 15.6782 22 15.36V8.63C21.9993 8.31184 21.9038 8.00109 21.7257 7.73747C21.5476 7.47384 21.2949 7.26931 21 7.15Z" fill="#111827"/>
<path d="M16.9999 15.5899L14.9999 13.5899L8.40994 6.99994L6.40994 4.99994L4.70994 3.28994C4.6167 3.1967 4.50601 3.12274 4.38419 3.07228C4.26237 3.02182 4.1318 2.99585 3.99994 2.99585C3.86808 2.99585 3.73751 3.02182 3.61569 3.07228C3.49387 3.12274 3.38318 3.1967 3.28994 3.28994C3.10164 3.47825 2.99585 3.73364 2.99585 3.99994C2.99585 4.26624 3.10164 4.52164 3.28994 4.70994L3.82994 5.23994L5.58994 6.99994L14.9299 16.3399L16.3899 17.7999L19.2899 20.7099C19.3829 20.8037 19.4935 20.8781 19.6154 20.9288C19.7372 20.9796 19.8679 21.0057 19.9999 21.0057C20.132 21.0057 20.2627 20.9796 20.3845 20.9288C20.5064 20.8781 20.617 20.8037 20.7099 20.7099C20.8037 20.617 20.8781 20.5064 20.9288 20.3845C20.9796 20.2627 21.0057 20.132 21.0057 19.9999C21.0057 19.8679 20.9796 19.7372 20.9288 19.6154C20.8781 19.4935 20.8037 19.3829 20.7099 19.2899L16.9999 15.5899Z" fill="#111827"/>
</g>
<defs>
<clipPath id="clip0_1_7017">
<rect width="24" height="24" fill="white"/>
</clipPath>
</defs>
</svg>
