<svg width="24" height="24" viewBox="0 0 24 24" fill="none" xmlns="http://www.w3.org/2000/svg">
<g clip-path="url(#clip0_1_7067)">
<path d="M12 20C12.5523 20 13 19.5523 13 19C13 18.4477 12.5523 18 12 18C11.4477 18 11 18.4477 11 19C11 19.5523 11.4477 20 12 20Z" fill="#111827"/>
<path d="M12 14C10.7057 14 9.46183 14.5018 8.52996 15.4C8.339 15.5843 8.22909 15.837 8.2244 16.1023C8.21971 16.3677 8.32063 16.624 8.50496 16.815C8.68928 17.006 8.94191 17.1159 9.20728 17.1206C9.47264 17.1252 9.729 17.0243 9.91996 16.84C10.4879 16.32 11.2299 16.0316 12 16.0316C12.77 16.0316 13.5121 16.32 14.08 16.84C14.2709 17.0243 14.5273 17.1252 14.7926 17.1206C15.058 17.1159 15.3106 17.006 15.495 16.815C15.6793 16.624 15.7802 16.3677 15.7755 16.1023C15.7708 15.837 15.6609 15.5843 15.47 15.4C14.5381 14.5018 13.2942 14 12 14Z" fill="#111827"/>
<path d="M12 8.99994C10.7922 9.00074 9.59691 9.24463 8.48536 9.71708C7.37381 10.1895 6.36872 10.8809 5.52998 11.7499C5.43871 11.8465 5.36734 11.96 5.31996 12.0841C5.27258 12.2082 5.2501 12.3404 5.25381 12.4732C5.25753 12.606 5.28736 12.7368 5.34161 12.858C5.39586 12.9793 5.47345 13.0887 5.56998 13.1799C5.76491 13.3643 6.02508 13.4636 6.29326 13.4561C6.42605 13.4524 6.5568 13.4226 6.67806 13.3683C6.79932 13.3141 6.90871 13.2365 6.99998 13.1399C7.65296 12.4625 8.43583 11.9236 9.3018 11.5555C10.1678 11.1875 11.099 10.9978 12.04 10.9978C12.9809 10.9978 13.9122 11.1875 14.7782 11.5555C15.6441 11.9236 16.427 12.4625 17.08 13.1399C17.1726 13.2344 17.283 13.3096 17.4049 13.3611C17.5268 13.4126 17.6577 13.4394 17.79 13.4399C17.9854 13.4392 18.1763 13.3812 18.3391 13.2731C18.502 13.1651 18.6296 13.0117 18.7062 12.8319C18.7828 12.6521 18.805 12.4538 18.7701 12.2615C18.7353 12.0692 18.6448 11.8914 18.51 11.7499C17.6666 10.876 16.655 10.1819 15.5362 9.70924C14.4174 9.23663 13.2145 8.99535 12 8.99994Z" fill="#111827"/>
<path d="M21.72 7.92994C19.1104 5.41252 15.6259 4.00574 12 4.00574C8.37409 4.00574 4.88959 5.41252 2.28002 7.92994C2.11125 8.1176 2.01969 8.36213 2.02369 8.61447C2.02768 8.86682 2.12695 9.10832 2.30157 9.29054C2.47619 9.47275 2.71326 9.5822 2.9652 9.59693C3.21715 9.61166 3.46535 9.53057 3.66002 9.36994C5.89761 7.20707 8.88796 5.99806 12 5.99806C15.1121 5.99806 18.1024 7.20707 20.34 9.36994C20.5254 9.54863 20.7725 9.64892 21.03 9.64994C21.1647 9.64943 21.2979 9.62171 21.4217 9.56844C21.5454 9.51517 21.6571 9.43745 21.75 9.33994C21.9323 9.14865 22.0315 8.89296 22.0259 8.62876C22.0203 8.36455 21.9103 8.11331 21.72 7.92994Z" fill="#111827"/>
</g>
<defs>
<clipPath id="clip0_1_7067">
<rect width="24" height="24" fill="white"/>
</clipPath>
</defs>
</svg>
